<?xml version="1.0" encoding="UTF-8"?>
<svg id="Layer_1" xmlns="http://www.w3.org/2000/svg" version="1.1" viewBox="0 0 720 720">
  <!-- Generator: Adobe Illustrator 30.3.0, SVG Export Plug-In . SVG Version: 2.1.3 Build 182)  -->
  <defs>
    <style>
      .st0 {
        fill: #fefefe;
      }

      .st1 {
        fill: #ff8017;
      }
    </style>
  </defs>
  <path class="st1" d="M711,360c0,193.85-157.15,351-351,351S9,553.85,9,360,166.15,9,360,9s351,157.15,351,351ZM699.27,360c0-187.37-151.9-339.27-339.27-339.27S20.73,172.63,20.73,360s151.9,339.27,339.27,339.27,339.27-151.9,339.27-339.27Z"/>
  <path d="M699.27,360c0,187.37-151.9,339.27-339.27,339.27S20.73,547.37,20.73,360,172.63,20.73,360,20.73s339.27,151.9,339.27,339.27ZM392.43,85.46l1.85-40.74-13.45-.64-.69,13.7-12.42-.66.58-13.62-13.4-.56-1.84,40.76,13.44.63.73-15.72,12.46.57-.73,15.75,13.49.54ZM330.56,85.23l-1.62-9.48-20.04,3.36,15.47-24.5-1.63-9.48-34.67,6.03,1.69,9.49,18.24-3.12-15.42,24.36,1.67,9.66,36.3-6.33ZM405.78,46.59l-6.73,40.42,13.38,2.23,6.73-40.42-13.38-2.23ZM282.87,78.42l-3.1-9.2-15.77,5.16-1.77-5.37,18.77-6.18-3-9.11-31.67,10.29,12.64,38.87,32.44-10.55-2.94-9.2-19.67,6.38-1.88-5.89,15.94-5.2ZM445.93,74.36l-2.44,8.64,5.51,1.72c-2.52,3.07-6.36,3.19-9.52,1.63-2.89-1.43-4.41-4.55-4.02-8.09.78-7.11,4.84-15.29,11.46-13.33,3,.89,5.18,3.27,5.13,6.94l12.23,3.55c1.06-6.82-1.78-13.15-7.33-16.88-4.3-2.89-9.28-4.33-14.54-4.25-12.25.19-19.7,11.12-20.22,22.96-.37,8.3,4.52,15.24,12.13,18.19,4.99,1.93,10.16,2.26,14.96-.22-.09,1.71-.48,2.58-.17,3.72l8.12,2.34,6.33-21.77-17.63-5.17ZM498.15,120.58l17.83-36.84-12.1-5.85-6.06,12.34-11.1-5.45,5.95-12.37-12.17-5.85-17.86,36.73,12.19,5.88,6.89-14.16,11.11,5.5-6.81,14.11,12.14,5.97ZM220.49,98.61l21.28,12.18,11.23-5.75-18.49-36.42-11.53,5.83c3.02,6.46,6.39,12.38,9.94,19l-22.42-12.63-11.18,5.64,18.5,36.5,11.52-5.87-2.59-5.06c-2.14-4.57-4.53-8.83-7.01-13,.02-.07-.04-.27-.33-.44.03-.38.51-.5.73-.2.05.06.16.13.35.24ZM183.99,128.9l8.66,11.91,10.9-7.92-8.89-12.25-2.87-29.7-11.96,8.64,2.3,15.15-13.62-6.88-12.23,8.88,27.72,12.18ZM618.01,360c0-142.5-115.52-258.01-258.01-258.01S101.99,217.51,101.99,360s115.52,258.01,258.01,258.01,258.01-115.52,258.01-258.01ZM554.05,145.6c9.47-11.76-12.23-24.38-7.37-28.36,1.6-1.31,5.47,1.11,6.73,4.05.44,1.02.02,2.19-.16,3.26l9.86,7.8c2.92-4.68,3.03-10.34-.02-15.03-3.42-5.26-8.82-9.24-14.83-10.94-4.9-1.38-9.48.15-12.58,3.85-10.17,12.15,11.44,24.16,7.11,28.66-1.62,1.68-5.19-.1-7.46-2.93-1.32-1.64-1.07-3.59-.66-5.48l-10.02-7.91c-3.44,5.16-2.82,11.29.39,16.21,3.53,5.41,9.18,9.41,15.4,11.19,5.21,1.5,10.25-.21,13.61-4.38ZM567.63,156.57c4.43-6.18,12.56-12.01,17.54-5.98,2.32,2.81,2.29,6.49-.47,9.25l8.8,9.32c8.75-9.4,4.88-21.48-4.39-28.78-10.94-8.62-25.36-3.29-32.17,8.72-5.49,9.68-.9,20.71,7.91,27.23,6.71,4.97,15.55,4.64,22.12-.64l-8.87-9.41c-4.07,2.78-7.48,2.62-10.43-1.14-1.95-2.48-2.05-5.75-.04-8.56ZM145.11,178.68l8.45-9.53,5.3,2.2,8.72-10.02-40.3-16.07-9.03,10.27,20.92,38,8.74-9.89c-.88-1.83-2.36-3.06-2.8-4.97ZM599.79,222.28l33.8-22.81-7.62-11.19-11.33,7.67-6.95-10.32,11.35-7.74-7.57-11.11-33.85,22.86,7.57,11.13,13.05-8.72,6.9,10.27-13.02,8.82,7.66,11.14ZM127.18,212.21l7.49-11.26-24.92-16.71,6.61-10.03-8.98-5.95-20.85,31.13,9.02,6.03,6.73-9.92,24.89,16.7ZM101.84,261.2l5.39-11.69c-6.75-3.3-13.09-6.17-19.77-8.81l25.75-3.82,5.28-11.41-36.97-17.28-5.5,11.7c6.74,3.27,13.14,6.2,19.93,8.84l-25.86,3.8-5.28,11.42,37.04,17.26ZM651.12,236.86c0-12.02-9.74-21.76-21.76-21.76s-21.76,9.74-21.76,21.76,9.74,21.76,21.76,21.76,21.76-9.74,21.76-21.76ZM667.65,282.56c0-12.03-9.75-21.77-21.77-21.77s-21.77,9.75-21.77,21.77,9.75,21.77,21.77,21.77,21.77-9.75,21.77-21.77ZM87.84,289.04l3.64-12.31,5.63-.28,3.57-12.76-43.3,2.92-3.67,13.2,35.21,25.18,3.6-12.76c-1.7-1.15-3.33-1.67-4.69-3.19ZM85.2,332.81c3.02-6.01,3.42-13.04,1.76-19.36-1.43-5.44-5.9-8.85-11.32-9.34-14.43-1.32-13.84,22.64-19.83,21.01-1.91-.52-1.95-4.05-.64-6.96.62-1.34,1.7-2.11,3.37-2.23l1.62-12.63c-5.85-.16-10.83,3.04-13.17,8.4s-2.93,11.99-1.33,17.82c1.45,5.28,5.78,8.49,11.06,8.77,14.14.75,13.63-21.24,19.08-21.09,2.72.08,3.35,4.81,1.56,8.42-.86,1.61-2.18,2.57-4.09,2.72l-1.62,12.85c5.96.35,10.84-3.01,13.54-8.38ZM643.36,325.62l30.92-3.56-1.56-13.41-40.58,4.7,3.66,31.56,9.58-1.1-2.03-18.19ZM265.11,636.12c1.73-3.93,1.91-8.19-.32-11.92-2.14-3.23-5.14-5.63-8.76-7.17l-19.66-8.34-15.89,37.65,12.44,5.21,4.94-11.61,7.63,3.15c8.19,3.38,15.9,1.48,19.62-6.98ZM487.52,650.91c4.46-3.89,5.88-9.47,3.71-14.88-5.52-13.74-26.28-1.62-28.17-7.24-.7-2.1,1.86-3.16,4.67-4.08,1.96-.64,3.44.57,4.82,1.61l11.63-4.59c-2.8-5.28-8.1-8.01-13.92-7.37s-11.67,3.24-15.94,7.38c-3.65,3.54-4.57,8.41-2.84,13.03,5.37,14.34,25.9,2.32,28.29,7.51,1.08,2.35-2.58,4.9-6.34,5.42-1.95.08-3.56-.64-4.72-2.3l-11.97,4.95c6.41,11.65,21.66,8.53,30.79.57ZM273.98,623.52l-11.76,39.26,13.04,3.91,11.76-39.26-13.04-3.91ZM446.11,650.01l-2.31-9.38-16.35,3.98-1.21-5.48,19.16-4.76-2.29-9.37-32.38,7.95,9.74,39.7,33.13-8.14-2.25-9.4-20.08,4.87-1.41-6.02,16.26-3.96ZM323.07,674.22l1.23-9.39c.5-3.84-1.07-6.71-5.06-8.49,6.11-1.21,8.37-5.77,8.47-11.69.06-3.44-1.64-6.28-4.62-8.02-2.91-1.72-6.15-2.72-9.58-3.34l-20.82-3.76-7.18,40.23,13.27,2.35,2.5-13.88,6.51,1.24c6.04,1.15,2.15,8.5,2.49,14.7l13.44,2.35c.94-.76-.73-1.81-.67-2.29ZM399.02,675.59l-2.98-29.8,11.9-1.2-1.11-10.78-37.24,3.76,1.09,10.8,11.9-1.21,3.04,29.87,13.39-1.45ZM358.35,672.66l1.54,5.42,13.32.27-13.57-41.14-13.7-.32-15.62,40.36,13.18.42,1.73-5.39,13.12.38Z"/>
  <path class="st0" d="M101.84,261.2l-37.04-17.26,5.28-11.42,25.86-3.8c-6.79-2.64-13.19-5.57-19.93-8.84l5.5-11.7,36.97,17.28-5.28,11.41-25.75,3.82c6.69,2.64,13.03,5.51,19.77,8.81l-5.39,11.69Z"/>
  <polygon class="st0" points="392.43 85.46 378.94 84.92 379.68 69.17 367.21 68.6 366.49 84.32 353.05 83.69 354.89 42.93 368.29 43.49 367.71 57.11 380.13 57.77 380.83 44.08 394.28 44.72 392.43 85.46"/>
  <g>
    <polygon class="st0" points="498.15 120.58 486 114.61 492.82 100.5 481.71 95 474.81 109.17 462.63 103.28 480.49 66.55 492.66 72.4 486.71 84.78 497.81 90.22 503.87 77.88 515.98 83.74 498.15 120.58"/>
    <path class="st0" d="M445.93,74.36l17.63,5.17-6.33,21.77-8.12-2.34c-.31-1.15.08-2.02.17-3.72-4.8,2.47-9.97,2.15-14.96.22-7.62-2.95-12.5-9.89-12.13-18.19.53-11.84,7.98-22.77,20.22-22.96,5.25-.08,10.24,1.37,14.54,4.25,5.55,3.72,8.39,10.06,7.33,16.88l-12.23-3.55c.06-3.67-2.12-6.06-5.13-6.94-6.62-1.96-10.68,6.22-11.46,13.33-.39,3.54,1.13,6.67,4.02,8.09,3.16,1.56,7,1.43,9.52-1.63l-5.51-1.72,2.44-8.64Z"/>
  </g>
  <polygon class="st0" points="282.87 78.42 266.92 83.62 268.8 89.51 288.47 83.13 291.41 92.34 258.97 102.88 246.32 64.01 278 53.72 280.99 62.83 262.23 69.01 264 74.38 279.77 69.22 282.87 78.42"/>
  <path class="st0" d="M85.2,332.81c-2.7,5.37-7.58,8.73-13.54,8.38l1.62-12.85c1.91-.15,3.23-1.1,4.09-2.72,1.78-3.62,1.15-8.35-1.56-8.42-5.45-.15-4.94,21.84-19.08,21.09-5.28-.28-9.61-3.49-11.06-8.77-1.6-5.83-1.09-12.27,1.33-17.82s7.32-8.56,13.17-8.4l-1.62,12.63c-1.67.13-2.75.9-3.37,2.23-1.31,2.91-1.27,6.44.64,6.96,5.99,1.63,5.4-22.33,19.83-21.01,5.42.5,9.89,3.9,11.32,9.34,1.66,6.32,1.26,13.36-1.76,19.36Z"/>
  <polygon class="st0" points="330.56 85.23 294.26 91.56 292.59 81.9 308.01 57.54 289.77 60.66 288.08 51.17 322.74 45.13 324.38 54.61 308.9 79.11 328.94 75.75 330.56 85.23"/>
  <g>
    <polygon class="st0" points="599.79 222.28 592.14 211.14 605.16 202.33 598.25 192.05 585.2 200.77 577.63 189.65 611.47 166.79 619.04 177.89 607.7 185.63 614.64 195.95 625.97 188.28 633.59 199.47 599.79 222.28"/>
    <path class="st0" d="M554.05,145.6c-3.36,4.17-8.41,5.87-13.61,4.38-6.22-1.79-11.87-5.78-15.4-11.19-3.21-4.92-3.83-11.05-.39-16.21l10.02,7.91c-.41,1.89-.66,3.84.66,5.48,2.27,2.82,5.84,4.61,7.46,2.93,4.33-4.49-17.28-16.51-7.11-28.66,3.1-3.7,7.69-5.23,12.58-3.85,6.01,1.69,11.41,5.68,14.83,10.94,3.05,4.69,2.94,10.36.02,15.03l-9.86-7.8c.18-1.07.59-2.24.16-3.26-1.26-2.95-5.13-5.37-6.73-4.05-4.85,3.99,16.85,16.61,7.37,28.36Z"/>
    <path class="st0" d="M567.63,156.57c-2.01,2.81-1.91,6.07.04,8.56,2.95,3.76,6.36,3.92,10.43,1.14l8.87,9.41c-6.57,5.28-15.41,5.61-22.12.64-8.81-6.52-13.4-17.55-7.91-27.23,6.81-12.01,21.23-17.33,32.17-8.72,9.27,7.3,13.15,19.38,4.39,28.78l-8.8-9.32c2.76-2.76,2.79-6.44.47-9.25-4.98-6.03-13.11-.2-17.54,5.98Z"/>
  </g>
  <g>
    <path class="st0" d="M219.73,99.02c2.48,4.18,4.87,8.43,7.01,13l2.59,5.06-11.52,5.87-18.5-36.5,11.18-5.64,22.42,12.63c-3.55-6.62-6.91-12.54-9.94-19l11.53-5.83,18.49,36.42-11.23,5.75-21.28-12.18-.75.41ZM220.14,98.37c-.22-.29-.7-.18-.73.2l.73-.2Z"/>
    <polygon class="st0" points="183.99 128.9 156.27 116.72 168.51 107.84 182.12 114.72 179.82 99.58 191.79 90.94 194.66 120.64 203.55 132.89 192.66 140.8 183.99 128.9"/>
  </g>
  <polygon class="st0" points="127.18 212.21 102.29 195.51 95.55 205.43 86.53 199.4 107.38 168.27 116.36 174.22 109.75 184.25 134.67 200.95 127.18 212.21"/>
  <polygon class="st0" points="643.36 325.62 645.39 343.81 635.81 344.91 632.14 313.35 672.72 308.65 674.28 322.06 643.36 325.62"/>
  <rect class="st0" x="388.62" y="61.14" width="40.98" height="13.57" transform="translate(274.93 460.32) rotate(-80.55)"/>
  <g>
    <path class="st0" d="M651.12,236.86c0,12.02-9.74,21.76-21.76,21.76s-21.76-9.74-21.76-21.76,9.74-21.76,21.76-21.76,21.76,9.74,21.76,21.76ZM626.69,245.83c4.3-.53,8.25-2.41,11.2-5.24,2.56-2.46,3.27-5.67,1.8-8.65-3.33-6.75-13.2-3.9-18.75,1.19-2.57,2.36-3.32,5.53-1.93,8.55,1.27,2.77,4.05,4.6,7.69,4.15Z"/>
    <path d="M626.69,245.83c-3.64.45-6.42-1.39-7.69-4.15-1.39-3.02-.64-6.2,1.93-8.55,5.55-5.09,15.42-7.94,18.75-1.19,1.47,2.98.77,6.19-1.8,8.65-2.95,2.83-6.9,4.71-11.2,5.24Z"/>
  </g>
  <g>
    <path class="st0" d="M667.65,282.56c0,12.03-9.75,21.77-21.77,21.77s-21.77-9.75-21.77-21.77,9.75-21.77,21.77-21.77,21.77,9.75,21.77,21.77ZM653.97,287.42c2.82-2.04,3.8-5.11,2.88-8.09-2.24-7.26-12.82-5.95-18.98-1.63-2.89,2.03-3.92,5.1-2.89,8.3,2.3,7.13,12.95,5.78,18.99,1.42Z"/>
    <path d="M653.97,287.42c-6.04,4.36-16.7,5.71-18.99-1.42-1.03-3.2,0-6.27,2.89-8.3,6.15-4.32,16.73-5.63,18.98,1.63.92,2.98-.06,6.05-2.88,8.09Z"/>
  </g>
  <g>
    <polygon class="st0" points="446.11 650.01 429.85 653.97 431.26 659.99 451.34 655.12 453.59 664.52 420.46 672.66 410.72 632.95 443.11 625 445.39 634.37 426.24 639.13 427.45 644.61 443.79 640.63 446.11 650.01"/>
    <path class="st0" d="M487.52,650.91c-9.13,7.96-24.38,11.08-30.79-.57l11.97-4.95c1.17,1.66,2.77,2.38,4.72,2.3,3.76-.51,7.43-3.07,6.34-5.42-2.39-5.19-22.91,6.83-28.29-7.51-1.73-4.62-.81-9.49,2.84-13.03,4.27-4.14,9.97-6.73,15.94-7.38s11.12,2.09,13.92,7.37l-11.63,4.59c-1.38-1.05-2.85-2.25-4.82-1.61-2.8.92-5.37,1.99-4.67,4.08,1.89,5.63,22.64-6.5,28.17,7.24,2.17,5.41.75,10.99-3.71,14.88Z"/>
    <polygon class="st0" points="399.02 675.59 385.63 677.03 382.59 647.17 370.69 648.37 369.6 637.58 406.83 633.81 407.94 644.59 396.04 645.79 399.02 675.59"/>
    <rect class="st0" x="254.13" y="638.29" width="40.98" height="13.61" transform="translate(-422.16 723.02) rotate(-73.32)"/>
    <g>
      <path class="st0" d="M323.07,674.22c-.06.48,1.61,1.54.67,2.29l-13.44-2.35c-.34-6.2,3.55-13.55-2.49-14.7l-6.51-1.24-2.5,13.88-13.27-2.35,7.18-40.23,20.82,3.76c3.42.62,6.67,1.62,9.58,3.34,2.98,1.74,4.68,4.58,4.62,8.02-.11,5.93-2.37,10.48-8.47,11.69,3.98,1.78,5.56,4.66,5.06,8.49l-1.23,9.39ZM310.3,650.41c2.53.41,4.28-.91,4.59-3.19.22-1.65-.75-3.81-2.76-4.22l-7.9-1.61-1.34,7.81,7.41,1.21Z"/>
      <path d="M310.3,650.41l-7.41-1.21,1.34-7.81,7.9,1.61c2,.41,2.98,2.56,2.76,4.22-.31,2.28-2.05,3.61-4.59,3.19Z"/>
    </g>
    <g>
      <path class="st0" d="M265.11,636.12c-3.71,8.46-11.43,10.36-19.62,6.98l-7.63-3.15-4.94,11.61-12.44-5.21,15.89-37.65,19.66,8.34c3.62,1.54,6.62,3.94,8.76,7.17,2.23,3.73,2.05,7.98.32,11.92ZM247.99,633.61c2.49,1,4.36-.51,5.27-2.46,1.95-4.18-3.4-6.61-8.28-8.23l-3.28,8.16,6.29,2.53Z"/>
      <path d="M247.99,633.61l-6.29-2.53,3.28-8.16c4.88,1.62,10.23,4.05,8.28,8.23-.91,1.94-2.78,3.46-5.27,2.46Z"/>
    </g>
    <g>
      <path class="st0" d="M358.35,672.66l-13.12-.38-1.73,5.39-13.18-.42,15.62-40.36,13.7.32,13.57,41.14-13.32-.27-1.54-5.42ZM356.18,663.89l-3.88-14.01-4.28,13.87,8.16.14Z"/>
      <polygon points="356.18 663.89 348.02 663.75 352.3 649.88 356.18 663.89"/>
    </g>
  </g>
  <g>
    <path class="st0" d="M145.11,178.68c.44,1.91,1.91,3.14,2.8,4.97l-8.74,9.89-20.92-38,9.03-10.27,40.3,16.07-8.72,10.02-5.3-2.2-8.45,9.53ZM145.67,165.09l-13.06-5.87,7.61,12.05,5.46-6.17Z"/>
    <polygon points="145.67 165.09 140.21 171.26 132.6 159.22 145.67 165.09"/>
  </g>
  <g>
    <path class="st0" d="M87.84,289.04c1.35,1.52,2.99,2.05,4.69,3.19l-3.6,12.76-35.21-25.18,3.67-13.2,43.3-2.92-3.57,12.76-5.63.28-3.64,12.31ZM82.36,276.62l-14.74.09,12.62,7.77,2.13-7.86Z"/>
    <polygon points="82.36 276.62 80.24 284.48 67.62 276.72 82.36 276.62"/>
  </g>
  <g>
    <path class="st1" d="M618.01,360c0,142.5-115.52,258.01-258.01,258.01S101.99,502.5,101.99,360,217.5,101.99,360,101.99s258.01,115.52,258.01,258.01ZM610.83,360c0-138.53-112.3-250.83-250.83-250.83s-250.83,112.3-250.83,250.83,112.3,250.83,250.83,250.83,250.83-112.3,250.83-250.83Z"/>
    <g>
      <path d="M374.9,532.69c-.95-.99-2.69.62-3.18,1.51-2.45,4.4-4.82,8.58-8.14,12.34-.64.72-1.7,1.03-2.43.76s-1.4-1.21-1.4-2.16l.05-5.95c0-.45-.29-.92-.54-1.03-.37-.16-.9.05-1.17.45l-3.9,5.71c-.47.7-1.55,1.24-2.34.77-1.41-.83-1.9-2.64-1.59-4.26.84-4.36-1.79-7.56-3.45-7.07-.36.11-.76.5-.88,1.04l-1.26,5.44c-.13.57-.44,1.22-.92,1.28-.36.04-1.08-.41-1.28-.92-1.83-4.65-4.46-8.56-7.52-12.51l-4.1-7.2c-.38-.66-.93-1.23-1.67-.99-.46.15-1.05,1.02-1.06,1.73l-.12,11.58c0,.51-.31,1.11-.59,1.27-.34.2-1.38-.12-1.64-.66l-9.25-18.7c-.69,1.07-.66,1.98-2.11,2.49l-12.03-23.44c-1.45-2.83-2.6-5.58-5.32-7.32-2.27-1.45-4.78-2.32-7.55-3.03-1.83,6.52-4.73,12.57-9.5,17.18-3.98,3.85-9.36,4.44-13.74,1.13-5.83-4.4-9.39-12.17-12.36-19.04l-10.29-1.01-5.2-2.71-5.11-.83-6.28-2.48-6.02-1.13-8.25-5.1-7.72-.67-10.55-2.72-24.68-2.79-34.71-8.64,41.24-2.22-26.7-21.97c-7.28-6.62-13.98-13.24-20.21-20.84-6.24-7.62-11.27-15.71-15.1-25.01,8.56-13.87,17.01-27.44,26.33-40.76,4.79-6.83,9.36-13.29,14.93-19.46,16.44-18.23,46.95-40.41,67.77-54.85,13.51-9.37,25.88-18.83,32.4-34.39l-2.75-5.71c-6.67-15.12-11.95-30.59-15.47-46.78-1.55-7.13-2.46-13.86-2.5-21.2,2.31-1.87,4.78-3.14,7.57-4.25,9.27-3.7,18.68-6.04,28.64-7.78,42.03-7.33,85.46-3.36,126.39,8.29,24.56,6.99,50.22,18.26,70.28,33.98,6.82,5.34,12.53,11.29,18.38,17.69,14.46,15.84,27.43,32.6,39.82,50.09,6.7,9.46,14.45,18.49,26.43,18.63l6.73.08,6.07,11.24,18.11,37.6c8.02,15.27,14.65,30.85,18.28,47.77,1.29,6.02,2.25,11.67,2.36,17.79-8.1,8.54-15.57,17.16-22.67,26.4l-4.68,7.44c-2.25,3.58-5.54,4.97-8.79,7.24l-35.19,24.57c2,2.47,2.16,5.2,2.25,8.1.27,9.58-7.44,12.61-16.6,13.92,8.58,2.8,12.7,11.04,14.66,19.79,2.03,9.08,2.2,18.32.8,27.52l-.23.91c-.05.19-.43.14-.67-.29-5.29-6.29-11.16-11.93-18.2-16.05-4.17-2.44-8.15-3.18-12.95-3.05-10.65.29-21.26-1.9-30.55-7.13-6.99-3.93-11.6-10.45-15.36-17.23-.61-1.1-1.74-1.58-2.8-1.02-2.06,1.09-3.42,3.11-3.45,5.39l-.14,9.5-.59,6.55,2.31,9.72c2.07,8.71-6.44,23.82-11.85,31.73-1.08,1.58-3.3,2.74-5.06,2.37-2.07-.43-3.08-2.44-3.7-4.27-2.45-7.32.11-15.47-3.4-17.89-1.92-1.33-3.35-2.76-3.3-5.23l.21-11.73c.02-1.4.3-4.09-.99-4.91-2.61-1.36-5.41.95-6.69,3.22l-2.87,5.07c-1.14,2.02-2.91,2.19-5,2.64-1.41.31-1.95,2.6-2.49,3.75-3.32,7.03-12.15,18.73-13.53,12.47l-1.06-4.81c-.15-.67-.45-1.29-.9-1.44-1.46-.48-2.82,1.24-3.9,3.29-2.3,4.35-8.59,14.59-11.26,12.97-2.81-1.7,1.99-7.15-.55-9.78ZM516.59,277.3l9.35,10.02,7.62-8.78c-12.99-17.1-26.41-33.45-40.98-49.14-6.43-6.93-12.47-13.77-20.05-19.35l-21.26-15.62c-19.05-14-46.74-27.78-70.13-31.99-14.74-2.65-29.26-4.15-44.27-5.03-32.48-1.89-64.42,2.6-95.24,13.19.73,4.8,1.72,9.4,3.84,13.84l11.22-3.98c33.75-12.37,66.76-13.76,102.39-9.83,50.63,5.58,91.9,32.55,125.09,70.05l32.41,36.62ZM316.37,295.65c12.14-5.79,24.05-10.49,36.6-14.64,18.63-6.17,41.23-10.94,58.32-.07l27.36,17.41c6.36,4.05,15.19,12.65,16.16,18.41l4.61,27.42,2.71,3.86c.67,6.01,6.8,1.88,10.42,5.58l6.05,6.19c1.71,1.74,4.56,3.46,4.71,6.03l.87,15.32c.12,2.12,1.46,4.33,2.37,6.26,1.11,2.35,3.91,3.22,6.34,3.32l15.29.63,20.72,3.1c9.11,1.36,15.09,8.37,22.81,8.24,9.38-.16,18.4-2.88,26.77-6.67,1-.45,1.34-1.2,1.23-2.2-2.78-25.24-10.75-44.72-22.06-67.09-6-11.86-12.22-23.22-19.78-34.52-1.55,2.24-2.03,4.79-2.02,7.4l.1,18.04c.02,3.41,1.19,7.24-.3,10.32l-5.47,11.25-3.49,9.5c-3.08,8.38-11.69,2.33-20,6.36l-9.03,4.38c-2.68,1.3-5.32,2.68-8.49,3.09-.35-1.22.42-2.36,1.48-2.99l8.9-5.29c1.88-1.12,3.3-2.49,4.51-4.31,2.13-3.21,5.67-4.82,9.55-4.33s3.67-2.87,6.75-5.27c2.25-1.76,1.9-4.25,2.33-6.84l5.67-34.2c-4.43-6.17-9.08-11.6-14.34-16.86l-13.01-13.01c-10.73-10.49-20.85-21.14-30.51-32.64-17.86-21.26-40.86-36.55-66.47-47.05-17.97-7.36-36.53-12.39-55.78-15.35-18.51-2.85-36.93-2.12-55.27,1.27-10.48,1.94-20.26,4.61-30.35,7.83l-16.97,5.43c2.47,12.59,7.31,24.22,13.74,35.27,1.33,2.29,2.11,5.14,1.87,7.66-.68,7.09-.55,13.81.66,20.9,3,17.6,4.68,34.53-2.58,51.42l-8.29,15.53-4.1,8.1c-3.6,5.61-8.4,10.28-13.61,14.33-1.24.97-2.61,1.11-3.96.54-3.72-1.56-5.86,1.48-8.8.88.1-2,1.64-2.72,3.12-3.49,2.86-1.49,5.03-3.85,7.61-5.76l8.18-6.05c.55-.4.89-.96.5-1.44-.88-1.09-4.4,1.7-5.7-.28-.26-.4-.3-1.26.32-1.51,8.1-3.19,8.74-6.42,10.26-15.3.83-4.81,1.05-9.45.2-14.35l-10.36,6.78-30.87,18.48-15.45,10.96c-6.25,5.02-11.9,10.47-16.43,17.05l-11.1,16.15c-5.47,9.05-10.55,18.11-14.72,27.92-.86,3.46,2.85,7.08,5.51,8.69l9.68,3.87c.62,1.36,1.88,2,3.46,1.9l12.94.48c4.06.15,7.17,5.79,10.93,5.8l18.85.04c9.54.54,18.86.76,28.24-.4l8.33-7.94c-.32-3.75,0-7.99-1.95-11.29-3.09-5.23-4.76-10.55-4.93-16.82-.08-2.9-.2-5.86,1.88-8.18,3.95-4.39,8.96-4.78,11.24-7.87l.72-6.03c.7-2.3,2.08-3.39,4.21-4.33,1.34-.59,1.57-6.56,3.39-10.09,1.84.25,3.44-.18,4.44-1.72,12.14-18.69,33.01-33.52,53.28-43.19ZM154.88,361.95c5.42-8.7,11.11-16.39,17.96-23.7,6.88-7.35,14.54-13.1,23.07-18.4l22.2-13.79c6.3-3.91,11.96-8.17,17.54-13.03,9.25-8.03,17.75-18.42,20.15-30.76-17.47,15.3-35.09,29.43-53.7,42.77-5.71,4.09-11.33,7.36-17.33,10.82-7.04,4.05-12.47,9.58-18.32,15.26-14.26,15.24-26.45,32.11-36.79,50.57l8.95,9.98c5.22-10.51,10.2-20.03,16.26-29.72ZM597.97,387.96c-1.07-6.36-2.41-11.7-4.27-17.31l-8.01-22.91-6-15.85c-6.41-13.98-13.32-27.44-21.27-40.59-2.16-3.57-4.25-6.77-6.92-9.75l-8.31,10.69c10.34,14.56,19.05,29.94,26.72,46.09,3.65,7.7,6.28,15.22,8.46,23.44,3.25,12.24,5.57,24.28,7.59,37.12l12.01-10.94ZM370.32,302.59c4.9-1.07,9.64-1.5,14.49-1.53l9.89-.06c6.03-.04-2.61-14.81-14.22-16.92-7.98-1.45-16.39-1.3-24.23.97l-9.69,4.11c-1.88.8-3.21,3.09-1.92,4.84,2.72,3.69,5.76,7.03,9.16,10.05,1.51,1.34,3.25,1.89,5.33,1.74s4.96.55,6.85-.6c1.45-.88,2.29-2.15,4.36-2.6ZM446.82,339.98c1.07.62,2.3.79,3.38.31,2.93-1.28,2.19-9.47,1.59-14.45-.3-2.48-1.89-4.12-3.92-5.27-4.82-2.73-1.95-7.14-4.17-9.05-1.95-1.67-7.39.22-8.62-3.27-.6-1.7-.98-2.89-2.93-3.48-3.36-1.02-6.98-1.88-10.6-1.59l-4.97.4c-4.03.32-7.19,3.21-6.79,7.3.15,1.56,1.58,2.57,3.01,2.82,3.17.56,5.21,2.99,5.08,6.21-.15,3.84,4.46,2.36,4.43,6.09l-.03,3.35c-.04,5.28,8.63,5.16,14.68,4.24,5.07-.77,5.89,4.1,9.84,6.39ZM341.35,331.29c6.84.35,13.24.15,19.78-.7,2.46-.32,4.93-1.3,6.12-3.54,1.06-1.99,1.6-4.65,1.09-6.95-1.19-5.39-5.76-9.02-11.2-9.75-5.72-.77-11.37-.66-17.1-.01-4.71.53-8.63,2.7-12.08,6.05-2.34,2.27-1.17,6.48,1.68,8.01,4.18,2.25,4.71,6.53,11.71,6.89ZM293.58,334.41l8.25-7.87c2.36-2.25,4.21-4.87,4.89-8.12,1.11-5.24-10.62-4.75-17.42-1.04-5.5,3-9.92,7.52-13.15,12.71-2.26,3.63-1.22,7.43,2,9.84,6.05,4.53,10.35-.68,15.43-5.52ZM400.22,345.77c3.66-.47,8.33-4.11,7.72-6.39-.15-.57-.72-1.46-1.45-1.81l-10.08-4.9c-5.24-3.04-10.93-2.58-15.41,1.48-1.5,1.36-3.24,2.9-5.26,3.44s-4.28,1.28-4.71,3.59c-1.2,6.34,21.15,5.62,29.18,4.58ZM346.04,357.86c2.74.53,5.03-.57,5.71-3.2.82-3.15.2-9.36-.31-9.92-.39-.43-1.16-.7-1.96-.8l-11.09-1.36c-6.97-.86-6.91-6.87-11.29-9.68s-7.62,3.46-10.3,3.53c-3.26.08-5.85.75-8.72,2.26l-6.54,3.43c-3.3,1.14-6.31,2.64-8.39,5.46-1.4,1.9-1.71,4.06-.58,5.82,1.29,2,3.28,2.96,5.65,2.13l6.47-2.25c22.3-7.76,33.43,3.05,41.33,4.59ZM337.15,425.48c-.61-.41-1.24-1.67-2.1-1.74-2.52-.2-4.39,1.7-5.33,3.99l-4.37,10.66-2.49,6.76-2.05,3.37c-2.17,3.58,8.9,6.06,14.91.31,3-2.87,5.83-6.06,4.17-9.12-.45-.82-1.64-1.52-2.88-2.1-1.18-.55-1.14-2.07-.76-3.12.25-.69.89-1.82,1.95-2.08,3.93-.97,7.51-2.33,10.96-4.82,4.55,3.69,10.42,5.41,16.26,4.89,6.38-.57,6.33-6.96,11.77-8.88,2.96-1.04,6.77.71,7.67,3.69.5,1.66-3.51,1.29-3.99,2.44-.85,2.03,3.05,5.05,5.58,6.24,8.68,4.06,19.44,6.47,27.46.96,4.4-3.02,7.68-7.31,10.29-11.84,3.12-5.4-.45-9.84.75-11.93.83-1.43,4.81-.54,4.93-5.9.06-2.67-.32-4.76-2.07-6.87-.89-1.07-1.76-3.96-.43-4.85,2.73-1.83,3.08,5.6,5.69,6.8s5.71-.29,7.57-2.31c5.56-6.01,5.23-16.41,5.29-24.22l.1-12.55c.02-3.04-1.07-6.17-3.17-8.41-5.81-6.22,1-11.24-6-14.97-2.81-1.5-5.81-1.43-8.18.92l-4.6,4.54c-2.36,2.33-5.22,3.61-8.47,4.15l-19.38,3.19-29.41,4.48-11.65,2.56c-.88,12.21-5.66,28.87-15.32,36.24-14.23,10.86-35.28,12.76-44.79-4.35-4.46-8.03-7.3-16.68-8.91-25.79l-.38-5.67c-3.86-1.06-6.35.77-9.94,2.42-.16,7.03,5.43,12.5,5.89,18.68.32,4.31-.52,8.42-.78,12.68l-.9,14.52c-.18,2.91,1.08,5.34,3.4,7.02l10.2,7.39c1.27.92,3.58,2.1,3.69,3.75l.67,10.37c.18,2.74.51,5.87,2.34,8.06,2.45,2.93,5.93,4.94,9.29,6.55,1.55.74,2.98.74,4.06-.29.98-.94,1.49-1.82,1.46-3.47-.09-4.5,1.3-8.73,3.89-12.39l10.24-14.48c2.53-3.58,5.03-7.56,8.67-10.08,4.28-2.96,8.77-5.21,11.94-9.51s2.36-8.26,4.16-7.86c1.21.27,1.28,2.61.99,3.67-2.21,8.14,1.62,13.27-1.57,15.33-1.15.74-2.14-3.64-5.29-2.81-5.89,1.55-9.4,7.46-8.15,13.4.18.86-.46,1.77-.84,2.13s-1.08.89-2.04.24ZM451.83,421.88c4.14,1.43,8.84,2.86,11.34.03,1.05-1.18,1.54-2.86,1.36-4.64l-1.01-9.9c-.45-4.43.62-8.27,3.22-11.82l7.94-10.88c2.82-3.87,4.7-8.5,4.19-13.49-.99-9.73-11.56-19.06-17.19-14.23l-7.23,6.21c-2.1,1.8-3.9,3.84-3.84,6.65l.26,12.73.28,10.02c.19,6.7-6.56,8.4-6.81,12.32-.25,3.89.34,7.74,1.6,11.36.97,2.8,3.01,4.64,5.89,5.63ZM262.85,411.7c-3.1-1.67-4.25-5.07-3.29-8.11.45-1.41.1-2.03-.31-3.36-.82-2.69-.54-5.98-.09-8.78.49-3.05-.53-5.19-2.46-7.56-3.45-4.24-9.6-1.83-10.19-4.57-.15-.71.37-2.17,1.5-2.42,3.3-.73,7.31.11,9.57,2.84l9.69,11.68c.43.52.97.8,1.56.73,2.11-.26,3.68-4.86,2.77-7.47-2.24-2.49-3.54-4.76-4.31-8.05-1.51-6.46-8.26-10.82-14.63-9.75-4.54.76-7.72,3.73-8.13,8.22-.29,3.06.21,6.07,1.2,9.02l5.47,16.31c1.08,3.23,1.63,6.47,1.83,9.83.39,6.56,6.32,8.95,7.58,12.95,1.17,3.74,1.95,9.99,5.56,11.09,4.2,1.28,9.88-4.98,12.04-9.86-3.13-2.02-7.25.07-9.33-4.88-1.22-2.91-4.81-.35-6.44-3.82-.57-1.22-.43-2.5.43-4.04ZM267.26,411.4c1.04.61,2.38.9,3.41.6.77-.22,2.01-.9,2.26-2.21.73-3.79,1.57-8.7-.49-12.31-1.54-2.71-9.49-6.81-10.57-4.78-1.54,2.9,5.23,6.2,4.43,10.37l-.9,4.67c-.32,1.67.32,2.75,1.87,3.66ZM382.94,455.39c2.74,1.28,7.24-.57,9.37-2.18,1.29-.97-.24-2.41-1.06-2.77l-10.72-4.76-5.52-1.98c-4.42-1.58-3.99-4.81-7.82-5.2l-11.01-1.11c-2.53-.26-4.45.76-5.54,2.91l-2.38,4.7c-1.92,2.86-4.98,4.29-7.85,5.98l-5.53,3.24c-.87.51-1.68,1.32-1.62,2.31,4,.89,9.03-3.51,12.4-3.19l5.9.55c3.01-.27,5.72.44,8.55,1.31,6.43,1.97,9.59-5.97,22.84.21ZM525.08,471.73c3.53-1.08,4.68-4.65,3.29-7.69-1.93-4.21-4.75-7.93-8.5-10.7-1.27-.94-3.23-.68-4.71.1l2.13,12.61c.3,1.76.63,4.18,2.03,5.43,1.26,1.13,4.07.76,5.76.24ZM460.9,474.34c-2.11-3.02-2.3-5.79-1.73-8.85,1.06-3,.92-6.21-.8-8.88-2.21-3.31-8.58-2.39-13.35-1.56-.22,6.05.08,14.49,4.96,17.05,3.38,1.87,7.12,2.71,10.91,2.24ZM504.77,472.22c-.31-4.99-.51-9.11-1.93-13.14-.84-2.85-2.79-4.26-5.62-4.53-1.84-.17-3.54-.95-5.61.17,2.3,5.2,1.55,13.52,3.9,15.8,2.42,2.36,6.28,2.51,9.27,1.69ZM489.03,463.2l-6.05-6.91c-1.04-1.19-2.46-1.8-4.1-1.24l2.03,9.24c.43,1.94.46,4.25,1.54,5.94,1.79,2.8,5.37,3.77,8.73,3.25-.99-4.37,1.13-6.54-2.14-10.28ZM358.42,464.89c1.34-1.85,1.05-6.45-.03-8.28-2.68-1.79-6.53-1.17-9.47-1.08l-.83,6.6c-.44,3.51,7,4.74,10.33,2.75ZM371.1,465.19c3.34-1,2.23-5.46,1.33-9.73-3.19.2-7.19-.23-9.73,1.96-1.28,1.83-1.38,6.68,0,8.38,2.45,1.38,5.94.12,8.4-.62ZM438.15,467.05c1.3-4.06,1.34-7.76.35-11.48h-44.45c-.63,2.84-2.29,4.74-4.43,6.5l-7.06,5.8,55.59-.82ZM476.23,471.42c-1.5-3.74.62-9.56-4.29-14.15-2.28-2.13-5.52-2.32-8.4-1.36-1.56,6.54-1.4,16.69,4.49,17.82,3.99.77,9.12-.02,8.21-2.3ZM513.86,470.31c1.57-1.93.4-4.36-.31-6.05-1.88-4.44-3.42-10.1-7.4-8.56,1.56,5.23,0,11.1,1.66,14.79,1.22,1.2,4.9,1.24,6.05-.17ZM344.87,463.57c1.95-1.19,2.16-5.63,1.03-7.1-3.44-1.32-10.82.78-11,3.35s7.16,5.46,9.97,3.75ZM385.97,461.28c2.95-2.56-4.99-6.45-10.4-4.82-1.38,1.49-.8,6.52,1.24,7.3,3.03,1.15,6.94-.55,9.16-2.48ZM326.61,457.47l-157.29.07,47.8,9.15,115.81-.81c.16-3.41-3.29-6.12-6.32-8.41ZM377.01,494.02c-2.06-1.44-3.87-2.07-5.79-3.02l-8.68-4.29-9.07-3.9c-1.51-.65-2.73-1.36-3.31-3.45,1.31-.24,3.48-1.22,4.98-.39l8.07,4.49c4.3,2.39,8.54,2.97,13.32,1.9s10.74,3.98,12.75-1.07c1.75-4.37,4.33-6.28,3.65-8.01-.18-.46-1.07-.82-1.48-1.31-2.12-2.53-4.76-3.53-8.09-2.78-4.7,1.05-9.33,1.72-14.23,1.61l-9.67-.21c-8.95.36-17.59-.18-26.38-1.77-3.69-.67-9.33-.65-10.17,1.21-1.28,2.81,9.04,14.95,13.36,18.92,2.05,1.88,6.07,2.97,8.08,1.25,6.42-5.48,14.29-4.26,19.43,1.98,6.13,7.44,22.32,12,27.28,5.66,2.29-2.93,4.42-5.63,7.67-7.5l7.15-4.11c3.43-1.97,6.14-4.6,7.59-8.37.6-1.55.8-4.41-.58-5.48-2.62-.85-5.6-.22-8.28-.55-.87,1.19-1.56,2.11-2.6,2.97-5.11,4.2-4.05,7.99-7.87,10.12l-6.74,3.74c-3.07,1.7-6.79,1.68-10.4,2.36ZM445.78,492.13l3.39-8.64c.53-1.36,1.52-2.48,1.86-3.97s-.36-2.78-1.87-3.23-3.12-.3-4.62-.39c-2.25-.13-3.49.92-5.03,2.15-5.28,4.23-9.81,7.37-7.73,13.98,1.28,4.06,5.41,7.29,9.8,5.58,2.07-.8,3.4-3.41,4.21-5.47ZM482.4,486.45c.36-2.38-1.5-4.55-3.3-5.81-3.96-2.77-8.85-3.06-13.67-3.13l-6.22-.09c-.03,3.15.84,6.57,2.55,9.25,1.32,2.08,3.85,2.84,6.19,2.25,7.69-1.93,14.05.2,14.45-2.47ZM524.22,495.76c1.35-2.84.67-5.4-1.66-7.51l-9.63-8.74c-2-1.81-4.29-2.64-6.88-1.41-2.35,1.11-4.52,2.91-6.31,4.85-1.85,2.02-1.46,4.92.78,6.49,3.95,2.77,8.12,5.08,12.59,7.02,4.59,1.99,9.31,3.06,11.11-.71ZM498.63,504.69l4.54-3.18c.5-.35.72-1.04.69-1.5-.1-1.49-5.55-5.08-8.53-6.62-3.65-1.89-7.28-1.75-11.22-.93l-5.89,1.23c-1.45.3-2.32,1.98-2.23,3.34.37,5.41,18.69,10.43,22.64,7.67ZM437.07,515.94c-1.57-7.23.36-14.06-1.1-15.34-2.12-1.85-8.83-.71-9.46,1.95-1.29,5.5-.88,11.27-.35,16.83.26,2.71,2.24,5.81,4.88,6.36,4.99,1.05,13.44-2.96,11.06-6.94-1.59-2.66-4.41-.06-5.02-2.87ZM529.99,520.23c.35.42.95.72,1.37.51,1.33-.65-.07-9.22-1.44-13.45-1.93-5.98-16.2-4.61-16.57-2.21-.42,2.7,7.71,4.57,12.42,10.15l4.21,5Z"/>
      <path class="st0" d="M337.15,425.48c.96.65,1.67.12,2.04-.24s1.02-1.28.84-2.13c-1.25-5.94,2.26-11.84,8.15-13.4,3.16-.83,4.15,3.55,5.29,2.81,3.19-2.07-.64-7.19,1.57-15.33.29-1.06.22-3.4-.99-3.67-1.8-.41-1.07,3.66-4.16,7.86s-7.65,6.55-11.94,9.51c-3.63,2.52-6.13,6.49-8.67,10.08l-10.24,14.48c-2.59,3.66-3.98,7.89-3.89,12.39.03,1.65-.48,2.53-1.46,3.47-1.07,1.03-2.51,1.02-4.06.29-3.37-1.61-6.85-3.62-9.29-6.55-1.83-2.19-2.16-5.32-2.34-8.06l-.67-10.37c-.11-1.65-2.42-2.83-3.69-3.75l-10.2-7.39c-2.32-1.68-3.58-4.11-3.4-7.02l.9-14.52c.26-4.26,1.1-8.37.78-12.68-.45-6.18-6.04-11.65-5.89-18.68,3.59-1.65,6.08-3.48,9.94-2.42l.38,5.67c1.61,9.11,4.45,17.76,8.91,25.79,9.5,17.1,30.56,15.2,44.79,4.35,9.66-7.37,14.44-24.03,15.32-36.24l11.65-2.56,29.41-4.48,19.38-3.19c3.26-.54,6.12-1.83,8.47-4.15l4.6-4.54c2.38-2.35,5.38-2.42,8.18-.92,7,3.73.2,8.75,6,14.97,2.09,2.24,3.19,5.37,3.17,8.41l-.1,12.55c-.06,7.81.26,18.22-5.29,24.22-1.87,2.02-4.95,3.51-7.57,2.31s-2.96-8.63-5.69-6.8c-1.33.89-.46,3.79.43,4.85,1.75,2.11,2.13,4.19,2.07,6.87-.12,5.35-4.1,4.47-4.93,5.9-1.21,2.09,2.36,6.52-.75,11.93-2.61,4.53-5.89,8.82-10.29,11.84-8.02,5.51-18.78,3.1-27.46-.96-2.53-1.18-6.42-4.21-5.58-6.24.48-1.15,4.5-.77,3.99-2.44-.9-2.99-4.71-4.74-7.67-3.69-5.44,1.92-5.39,8.31-11.77,8.88-5.84.52-11.71-1.2-16.26-4.89-3.45,2.49-7.03,3.85-10.96,4.82-1.06.26-1.7,1.39-1.95,2.08-.38,1.05-.42,2.57.76,3.12,1.25.58,2.44,1.28,2.88,2.1,1.66,3.06-1.17,6.26-4.17,9.12-6.01,5.75-17.09,3.26-14.91-.31l2.05-3.37,2.49-6.76,4.37-10.66c.94-2.29,2.81-4.19,5.33-3.99.86.07,1.49,1.33,2.1,1.74ZM400.74,422.07l-.18-4.79c-.07-1.83-.37-3.4-1.5-4.84-3.59-4.61-7.59-8.84-12.34-12.31l-5.34-2.6c-.77-.37-1.32-1.09-1.34-1.81-.01-.51,2.4-4.99,4.59-5.58s4.45-.33,5.89,1.15l5.56,5.7c3.13,3.2,7.29,4.93,11.76,4.06-4.55-3.27-8.82-6.49-11.62-11.61,10.65.1,20.81-2.06,29.36-7.72,4.99-3.3,8.07-7.87,9.01-13.69.39-2.4,1.19-4.92.27-7.3-.49-1.28-1.41-2.38-1.58-3.75l-26.04.58-9.24.21c-2.5,3.78-6.44,5.33-10.65,6.19-2.45,2.97-6.16,6.03-8.15,4.1-1.41-1.37-.12-4-2.44-4.49-1.54-.33-3.04-.43-4.72-.22l.81,52.57c.73.61,2.85.74,3.21-.02,1.31-2.81,1.04-5.96,1.73-8.92.44-1.87,2.83-2.46,4.47-2.04,1.97.5,3.2,1.71,4.6,3l8.93,8.21c4.04,3.71-2.96,9.31.8,11.38,4.29,2.37,11.19,0,8.99-1.69-1.21-.92-4.73-.88-4.84-3.76Z"/>
      <path class="st0" d="M516.59,277.3l-32.41-36.62c-33.18-37.5-74.46-64.48-125.09-70.05-35.64-3.93-68.64-2.53-102.39,9.83l-11.22,3.98c-2.12-4.44-3.11-9.04-3.84-13.84,30.81-10.59,62.76-15.08,95.24-13.19,15.01.87,29.53,2.37,44.27,5.03,23.39,4.21,51.07,17.99,70.13,31.99l21.26,15.62c7.58,5.57,13.62,12.42,20.05,19.35,14.57,15.69,27.99,32.04,40.98,49.14l-7.62,8.78-9.35-10.02Z"/>
      <path class="st0" d="M154.88,361.95c-6.05,9.69-11.04,19.21-16.26,29.72l-8.95-9.98c10.34-18.46,22.52-35.34,36.79-50.57,5.84-5.68,11.28-11.21,18.32-15.26,6-3.46,11.62-6.73,17.33-10.82,18.61-13.34,36.23-27.47,53.7-42.77-2.39,12.34-10.9,22.73-20.15,30.76-5.58,4.85-11.24,9.11-17.54,13.03l-22.2,13.79c-8.54,5.3-16.19,11.06-23.07,18.4-6.85,7.31-12.54,15-17.96,23.7Z"/>
      <path class="st0" d="M377.01,494.02c3.61-.68,7.33-.66,10.4-2.36l6.74-3.74c3.82-2.12,2.76-5.91,7.87-10.12,1.04-.86,1.73-1.78,2.6-2.97,2.68.33,5.66-.3,8.28.55,1.38,1.06,1.18,3.93.58,5.48-1.45,3.76-4.16,6.39-7.59,8.37l-7.15,4.11c-3.25,1.87-5.38,4.57-7.67,7.5-4.96,6.35-21.15,1.78-27.28-5.66-5.14-6.24-13.01-7.46-19.43-1.98-2.02,1.72-6.03.64-8.08-1.25-4.32-3.96-14.65-16.11-13.36-18.92.85-1.85,6.48-1.87,10.17-1.21,8.79,1.59,17.43,2.14,26.38,1.77l9.67.21c4.9.11,9.53-.56,14.23-1.61,3.33-.75,5.97.25,8.09,2.78.41.49,1.3.85,1.48,1.31.68,1.73-1.9,3.64-3.65,8.01-2.02,5.05-8.07.01-12.75,1.07s-9.02.49-13.32-1.9l-8.07-4.49c-1.5-.83-3.67.16-4.98.39.58,2.08,1.79,2.8,3.31,3.45l9.07,3.9,8.68,4.29c1.92.95,3.73,1.58,5.79,3.02Z"/>
      <path class="st0" d="M597.97,387.96l-12.01,10.94c-2.02-12.84-4.35-24.88-7.59-37.12-2.18-8.22-4.81-15.75-8.46-23.44-7.67-16.15-16.38-31.53-26.72-46.09l8.31-10.69c2.67,2.97,4.76,6.18,6.92,9.75,7.96,13.14,14.87,26.6,21.27,40.59l6,15.85,8.01,22.91c1.86,5.61,3.21,10.95,4.27,17.31Z"/>
      <path class="st0" d="M326.61,457.47c3.03,2.29,6.48,5,6.32,8.41l-115.81.81-47.8-9.15,157.29-.07Z"/>
      <path class="st0" d="M262.85,411.7c-.86,1.54-1,2.82-.43,4.04,1.63,3.47,5.22.91,6.44,3.82,2.08,4.95,6.2,2.87,9.33,4.88-2.16,4.87-7.84,11.14-12.04,9.86-3.61-1.1-4.38-7.35-5.56-11.09-1.26-4.01-7.19-6.39-7.58-12.95-.2-3.36-.75-6.6-1.83-9.83l-5.47-16.31c-.99-2.96-1.48-5.96-1.2-9.02.42-4.49,3.59-7.46,8.13-8.22,6.37-1.07,13.12,3.3,14.63,9.75.77,3.29,2.07,5.56,4.31,8.05.91,2.6-.66,7.21-2.77,7.47-.59.07-1.12-.2-1.56-.73l-9.69-11.68c-2.26-2.73-6.27-3.57-9.57-2.84-1.13.25-1.65,1.71-1.5,2.42.59,2.74,6.75.33,10.19,4.57,1.93,2.37,2.94,4.51,2.46,7.56-.45,2.79-.73,6.09.09,8.78.41,1.34.75,1.95.31,3.36-.96,3.04.18,6.44,3.29,8.11Z"/>
      <path class="st0" d="M438.15,467.05l-55.59.82,7.06-5.8c2.14-1.76,3.8-3.67,4.43-6.51h44.45c.99,3.72.96,7.42-.35,11.48Z"/>
      <path class="st0" d="M382.94,455.39c-13.25-6.18-16.41,1.76-22.84-.21-2.83-.87-5.54-1.57-8.55-1.31l-5.9-.55c-3.37-.31-8.4,4.08-12.4,3.19-.05-.99.76-1.8,1.62-2.31l5.53-3.24c2.88-1.68,5.94-3.12,7.85-5.98l2.38-4.7c1.09-2.15,3.01-3.17,5.54-2.91l11.01,1.11c3.83.39,3.4,3.62,7.82,5.2l5.52,1.98,10.72,4.76c.82.37,2.35,1.8,1.06,2.77-2.14,1.61-6.63,3.46-9.37,2.18ZM354.11,445.5c-.36-.34-.68.17-.34.4l.34-.4ZM354.33,445.62l-.51.5c.43,1.2.76,3.22,2.27,3.88,1.3.56,3.14.11,4.63.14,2.52.05,4.5-1.95,4.75-4.34-3.98,1.03-7.61.81-11.14-.18Z"/>
      <g>
        <path class="st1" d="M316.37,295.65c-20.27,9.68-41.14,24.51-53.28,43.19-1,1.54-2.6,1.97-4.44,1.72-1.82,3.53-2.05,9.49-3.39,10.09-2.13.94-3.51,2.04-4.21,4.33l-.72,6.03c-2.28,3.09-7.29,3.48-11.24,7.87-2.08,2.31-1.96,5.28-1.88,8.18.17,6.28,1.84,11.59,4.93,16.82,1.95,3.3,1.62,7.54,1.95,11.29l-8.33,7.94c-9.38,1.15-18.7.93-28.24.4l-18.85-.04c-3.76,0-6.87-5.65-10.93-5.8l-12.94-.48c-1.58.1-2.84-.55-3.46-1.9l-9.68-3.87c-2.67-1.61-6.37-5.23-5.51-8.69,4.18-9.81,9.26-18.87,14.72-27.92l11.1-16.15c4.52-6.58,10.18-12.03,16.43-17.05l15.45-10.96,30.87-18.48,10.36-6.78c.84,4.9.62,9.53-.2,14.35-1.53,8.88-2.17,12.11-10.26,15.3-.62.25-.58,1.11-.32,1.51,1.3,1.98,4.82-.81,5.7.28.39.49.05,1.04-.5,1.44l-8.18,6.05c-2.58,1.91-4.75,4.26-7.61,5.76-1.48.77-3.01,1.49-3.12,3.49,2.94.59,5.08-2.44,8.8-.88,1.35.57,2.72.42,3.96-.54,5.21-4.06,10.01-8.72,13.61-14.33l4.1-8.1,8.29-15.53c7.26-16.9,5.58-33.82,2.58-51.42-1.21-7.09-1.33-13.81-.66-20.9.24-2.52-.54-5.37-1.87-7.66-6.43-11.05-11.27-22.68-13.74-35.27l16.97-5.43c10.09-3.23,19.87-5.89,30.35-7.83,18.34-3.39,36.76-4.12,55.27-1.27,19.25,2.96,37.81,7.99,55.78,15.35,25.61,10.5,48.61,25.79,66.47,47.05,9.67,11.5,19.79,22.15,30.51,32.64l13.01,13.01c5.26,5.26,9.9,10.69,14.34,16.86l-5.67,34.2c-.43,2.59-.08,5.08-2.33,6.84-3.07,2.4-2.94,5.75-6.75,5.27s-7.42,1.12-9.55,4.33c-1.21,1.82-2.63,3.19-4.51,4.31l-8.9,5.29c-1.06.63-1.83,1.77-1.48,2.99,3.17-.41,5.8-1.79,8.49-3.09l9.03-4.38c8.31-4.03,16.92,2.02,20-6.36l3.49-9.5,5.47-11.25c1.5-3.08.32-6.91.3-10.32l-.1-18.04c-.01-2.61.47-5.16,2.02-7.4,7.56,11.3,13.78,22.66,19.78,34.52,11.31,22.36,19.29,41.85,22.06,67.09.11,1-.23,1.75-1.23,2.2-8.38,3.79-17.39,6.51-26.77,6.67-7.72.13-13.7-6.88-22.81-8.24l-20.72-3.1-15.29-.63c-2.43-.1-5.23-.98-6.34-3.32-.92-1.93-2.25-4.14-2.37-6.26l-.87-15.32c-.15-2.56-3-4.28-4.71-6.03l-6.05-6.19c-3.62-3.7-9.75.43-10.42-5.58l-2.71-3.86-4.61-27.42c-.97-5.75-9.8-14.36-16.16-18.41l-27.36-17.41c-17.09-10.87-39.68-6.11-58.32.07-12.55,4.16-24.46,8.85-36.6,14.64Z"/>
        <path class="st1" d="M446.82,339.98c-3.95-2.28-4.77-7.16-9.84-6.39-6.05.92-14.72,1.04-14.68-4.24l.03-3.35c.03-3.73-4.58-2.25-4.43-6.09.13-3.21-1.92-5.65-5.08-6.21-1.43-.25-2.86-1.26-3.01-2.82-.41-4.09,2.76-6.98,6.79-7.3l4.97-.4c3.62-.29,7.23.58,10.6,1.59,1.95.59,2.33,1.78,2.93,3.48,1.23,3.48,6.67,1.6,8.62,3.27,2.23,1.91-.65,6.32,4.17,9.05,2.03,1.15,3.62,2.79,3.92,5.27.6,4.98,1.34,13.17-1.59,14.45-1.09.48-2.32.31-3.38-.31Z"/>
        <path class="st1" d="M370.32,302.59c-2.07.45-2.91,1.71-4.36,2.6-1.89,1.15-4.73.45-6.85.6s-3.82-.41-5.33-1.74c-3.4-3.01-6.44-6.35-9.16-10.05-1.29-1.75.04-4.04,1.92-4.84l9.69-4.11c7.84-2.27,16.25-2.42,24.23-.97,11.61,2.11,20.25,16.88,14.22,16.92l-9.89.06c-4.85.03-9.59.47-14.49,1.53Z"/>
        <path class="st1" d="M346.04,357.86c-7.9-1.53-19.03-12.35-41.33-4.59l-6.47,2.25c-2.37.82-4.36-.14-5.65-2.13-1.13-1.75-.83-3.92.58-5.82,2.08-2.82,5.09-4.32,8.39-5.46l6.54-3.43c2.87-1.5,5.46-2.17,8.72-2.26,2.68-.07,5.82-6.4,10.3-3.53s4.31,8.82,11.29,9.68l11.09,1.36c.8.1,1.57.37,1.96.8.51.55,1.12,6.77.31,9.92-.68,2.63-2.98,3.73-5.71,3.2Z"/>
        <path class="st1" d="M341.35,331.29c-7-.36-7.53-4.64-11.71-6.89-2.85-1.54-4.02-5.74-1.68-8.01,3.45-3.35,7.37-5.52,12.08-6.05,5.73-.65,11.38-.75,17.1.01,5.43.73,10,4.36,11.2,9.75.51,2.3-.03,4.95-1.09,6.95-1.2,2.24-3.66,3.22-6.12,3.54-6.54.85-12.94,1.05-19.78.7Z"/>
        <path class="st1" d="M293.58,334.41c-5.08,4.84-9.38,10.05-15.43,5.52-3.23-2.42-4.27-6.21-2-9.84,3.23-5.18,7.66-9.71,13.15-12.71,6.79-3.71,18.53-4.2,17.42,1.04-.69,3.25-2.53,5.87-4.89,8.12l-8.25,7.87Z"/>
        <path class="st1" d="M400.22,345.77c-8.03,1.04-30.38,1.76-29.18-4.58.44-2.32,2.66-3.04,4.71-3.59s3.76-2.08,5.26-3.44c4.48-4.07,10.17-4.53,15.41-1.48l10.08,4.9c.73.36,1.3,1.24,1.45,1.81.6,2.28-4.06,5.91-7.72,6.39Z"/>
      </g>
      <path class="st1" d="M524.22,495.76c-1.8,3.77-6.51,2.7-11.11.71-4.47-1.94-8.64-4.25-12.59-7.02-2.24-1.57-2.63-4.48-.78-6.49,1.79-1.94,3.95-3.75,6.31-4.85,2.6-1.22,4.88-.4,6.88,1.41l9.63,8.74c2.33,2.11,3.01,4.67,1.66,7.51Z"/>
      <path class="st1" d="M437.07,515.94c.61,2.81,3.43.21,5.02,2.87,2.38,3.98-6.07,7.98-11.06,6.94-2.64-.55-4.62-3.66-4.88-6.36-.53-5.56-.94-11.33.35-16.83.63-2.66,7.34-3.8,9.46-1.95,1.46,1.28-.47,8.11,1.1,15.34Z"/>
      <path class="st1" d="M445.78,492.13c-.81,2.06-2.14,4.67-4.21,5.47-4.39,1.7-8.52-1.52-9.8-5.58-2.08-6.61,2.45-9.75,7.73-13.98,1.54-1.23,2.78-2.27,5.03-2.15,1.5.08,3.15-.05,4.62.39s2.21,1.73,1.87,3.23-1.32,2.61-1.86,3.97l-3.39,8.64Z"/>
      <path class="st1" d="M498.63,504.69c-3.95,2.76-22.27-2.26-22.64-7.67-.09-1.36.78-3.04,2.23-3.34l5.89-1.23c3.94-.82,7.57-.96,11.22.93,2.97,1.54,8.43,5.13,8.53,6.62.03.47-.18,1.15-.69,1.5l-4.54,3.18Z"/>
      <path class="st0" d="M460.9,474.34c-3.79.47-7.53-.37-10.91-2.24-4.88-2.55-5.18-11-4.96-17.05,4.77-.83,11.14-1.75,13.35,1.56,1.72,2.67,1.86,5.88.8,8.88-.57,3.07-.38,5.84,1.73,8.85Z"/>
      <path class="st1" d="M482.4,486.45c-.4,2.67-6.76.55-14.45,2.47-2.34.59-4.87-.18-6.19-2.25-1.71-2.69-2.58-6.11-2.55-9.25l6.22.09c4.81.07,9.71.36,13.67,3.13,1.81,1.26,3.66,3.43,3.3,5.81Z"/>
      <path class="st0" d="M476.23,471.42c.91,2.28-4.21,3.07-8.21,2.3-5.89-1.13-6.05-11.28-4.49-17.82,2.89-.95,6.12-.77,8.4,1.36,4.91,4.59,2.79,10.42,4.29,14.15Z"/>
      <path class="st0" d="M525.08,471.73c-1.69.52-4.5.89-5.76-.24-1.41-1.26-1.74-3.68-2.03-5.43l-2.13-12.61c1.48-.79,3.45-1.04,4.71-.1,3.74,2.77,6.57,6.49,8.5,10.7,1.39,3.04.24,6.61-3.29,7.69Z"/>
      <path class="st0" d="M504.77,472.22c-2.98.82-6.84.67-9.27-1.69-2.35-2.29-1.59-10.6-3.9-15.8,2.07-1.12,3.77-.35,5.61-.17,2.83.27,4.78,1.68,5.62,4.53,1.42,4.03,1.62,8.15,1.93,13.14Z"/>
      <path class="st1" d="M529.99,520.23l-4.21-5c-4.71-5.59-12.84-7.45-12.42-10.15.37-2.4,14.63-3.77,16.57,2.21,1.37,4.23,2.77,12.81,1.44,13.45-.42.21-1.02-.09-1.37-.51Z"/>
      <path class="st0" d="M267.26,411.4c-1.54-.9-2.19-1.99-1.87-3.66l.9-4.67c.81-4.17-5.97-7.47-4.43-10.37,1.08-2.03,9.03,2.07,10.57,4.78,2.06,3.61,1.21,8.52.49,12.31-.25,1.31-1.49,1.99-2.26,2.21-1.04.3-2.37,0-3.41-.6Z"/>
      <path class="st0" d="M489.03,463.2c3.28,3.74,1.15,5.9,2.14,10.28-3.37.52-6.95-.45-8.73-3.25-1.08-1.69-1.11-4-1.54-5.94l-2.03-9.24c1.65-.57,3.06.04,4.1,1.24l6.05,6.91Z"/>
      <path class="st0" d="M371.1,465.19c-2.47.74-5.95,2-8.4.62-1.37-1.7-1.28-6.56,0-8.38,2.54-2.2,6.54-1.76,9.73-1.96.9,4.27,2,8.73-1.33,9.73Z"/>
      <path class="st0" d="M358.42,464.89c-3.34,1.98-10.78.75-10.33-2.75l.83-6.6c2.94-.09,6.79-.71,9.47,1.08,1.09,1.83,1.37,6.43.03,8.28Z"/>
      <path class="st0" d="M513.86,470.31c-1.15,1.41-4.83,1.37-6.05.17-1.66-3.68-.11-9.56-1.66-14.79,3.98-1.54,5.52,4.13,7.4,8.56.72,1.69,1.88,4.12.31,6.05Z"/>
      <path class="st0" d="M344.87,463.57c-2.81,1.71-10.15-1.1-9.97-3.75s7.55-4.67,11-3.35c1.13,1.47.93,5.91-1.03,7.1Z"/>
      <path class="st0" d="M385.97,461.28c-2.22,1.93-6.13,3.63-9.16,2.48-2.04-.77-2.62-5.81-1.24-7.3,5.41-1.64,13.35,2.25,10.4,4.82Z"/>
      <path d="M400.74,422.07c.11,2.88,3.64,2.84,4.84,3.76,2.2,1.69-4.69,4.07-8.99,1.69-3.75-2.07,3.24-7.67-.8-11.38l-8.93-8.21c-1.4-1.29-2.63-2.5-4.6-3-1.64-.41-4.04.17-4.47,2.04-.69,2.96-.42,6.11-1.73,8.92-.35.76-2.48.63-3.21.02l-.81-52.57c1.68-.21,3.18-.1,4.72.22,2.32.49,1.03,3.12,2.44,4.49,1.99,1.93,5.7-1.13,8.15-4.1,4.22-.86,8.15-2.41,10.65-6.19l9.24-.21,26.04-.58c.17,1.37,1.09,2.47,1.58,3.75.91,2.38.11,4.89-.27,7.3-.94,5.82-4.02,10.39-9.01,13.69-8.56,5.66-18.71,7.82-29.36,7.72,2.81,5.11,7.08,8.33,11.62,11.61-4.47.87-8.63-.85-11.76-4.06l-5.56-5.7c-1.44-1.48-3.65-1.75-5.89-1.15s-4.6,5.07-4.59,5.58c.02.72.57,1.43,1.34,1.81l5.34,2.6c4.74,3.47,8.75,7.7,12.34,12.31,1.12,1.44,1.43,3.01,1.5,4.84l.18,4.79ZM385.97,371.19l-4.89,1.57c2.52,7.26,8.58,11.84,16.13,12.26,6.2.35,12.23-.67,17.96-2.89,8.76-3.39,14.28-11.09,14.65-20.75l-9.6-.43-8.43.76c1.03,5.36-1.29,10.67-5.6,13.87-2.81,2.1-6.09,1.97-9.02.25l-5.21-5.17c-1.34-1.33-4.5.05-6,.53Z"/>
      <g>
        <path class="st0" d="M451.83,421.88c-2.87-.99-4.92-2.83-5.89-5.63-1.26-3.62-1.85-7.47-1.6-11.36.25-3.92,7-5.62,6.81-12.32l-.28-10.02-.26-12.73c-.06-2.81,1.74-4.85,3.84-6.65l7.23-6.21c5.63-4.84,16.2,4.5,17.19,14.23.51,4.99-1.37,9.62-4.19,13.49l-7.94,10.88c-2.6,3.56-3.67,7.39-3.22,11.82l1.01,9.9c.18,1.78-.31,3.46-1.36,4.64-2.51,2.83-7.21,1.39-11.34-.03ZM463.07,382.09c1.6-2.37-2.79-10.15,2.67-11.54,1.76-.45,3.71.46,4.88,2.54.85-1.28.86-2.81.15-4.27l-1.64-3.38c-.37-.76-1.1-1.23-1.8-1.23-.65,0-1.27.3-1.8.83l-4,3.9c-2.36,1.69-3.52,3.94-3.19,6.95l.84,7.87-1.62,6.5,5.52-8.17Z"/>
        <path d="M463.07,382.09l-5.52,8.17,1.62-6.5-.84-7.87c-.32-3.01.83-5.26,3.19-6.95l4-3.9c.54-.52,1.15-.82,1.8-.83.71,0,1.44.47,1.8,1.23l1.64,3.38c.71,1.47.7,2.99-.15,4.27-1.17-2.08-3.12-2.99-4.88-2.54-5.46,1.39-1.07,9.17-2.67,11.54Z"/>
      </g>
      <path d="M353.77,445.89c-.34-.23-.02-.74.34-.4.03.04.12.09.22.12,3.52.99,7.16,1.21,11.14.18-.24,2.39-2.22,4.39-4.75,4.34-1.49-.03-3.33.42-4.63-.14-1.52-.65-1.85-2.67-2.27-3.88l-.05-.23Z"/>
      <path class="st0" d="M385.97,371.19c1.49-.48,4.66-1.86,6-.53l5.21,5.17c2.93,1.73,6.2,1.85,9.02-.25,4.31-3.21,6.62-8.52,5.6-13.87l8.43-.76,9.6.43c-.37,9.67-5.89,17.36-14.65,20.75-5.73,2.22-11.77,3.24-17.96,2.89-7.55-.42-13.6-5-16.13-12.26l4.89-1.57Z"/>
    </g>
  </g>
</svg>