<?xml version="1.0" encoding="UTF-8"?>
<svg id="Layer_1" xmlns="http://www.w3.org/2000/svg" version="1.1" viewBox="0 0 720 720">
  <!-- Generator: Adobe Illustrator 30.3.0, SVG Export Plug-In . SVG Version: 2.1.3 Build 182)  -->
  <defs>
    <style>
      .st0 {
        fill: #fefefe;
      }

      .st1 {
        fill: #ff8017;
      }
    </style>
  </defs>
  <path d="M382.28,619.62c-1.4-1.45-3.95.92-4.67,2.22-3.6,6.47-7.09,12.61-11.96,18.14-.94,1.06-2.5,1.51-3.57,1.12-1.02-.37-2.06-1.78-2.05-3.18l.08-8.75c0-.66-.43-1.36-.8-1.51-.54-.23-1.32.07-1.72.65l-5.74,8.4c-.7,1.02-2.28,1.82-3.45,1.14-2.07-1.22-2.8-3.88-2.34-6.26,1.24-6.41-2.63-11.12-5.07-10.39-.52.16-1.12.74-1.3,1.52l-1.85,7.99c-.19.84-.65,1.79-1.35,1.88-.53.07-1.59-.61-1.88-1.35-2.7-6.84-6.55-12.58-11.05-18.39l-6.03-10.59c-.55-.97-1.37-1.81-2.46-1.46-.67.22-1.54,1.5-1.55,2.55l-.18,17.03c0,.75-.46,1.63-.86,1.86-.5.29-2.02-.17-2.42-.97l-13.6-27.49c-1.01,1.57-.98,2.9-3.1,3.66l-17.69-34.46c-2.13-4.15-3.82-8.2-7.83-10.77-3.34-2.13-7.02-3.42-11.1-4.46-2.69,9.58-6.95,18.47-13.96,25.26-5.85,5.66-13.77,6.53-20.2,1.67-8.57-6.47-13.81-17.88-18.17-27.99l-15.12-1.49-7.65-3.99-7.51-1.21-9.23-3.64-8.85-1.66-12.13-7.49-11.35-.99-15.51-4-36.28-4.1-51.03-12.71,60.62-3.27-39.25-32.3c-10.7-9.73-20.55-19.47-29.71-30.63-9.18-11.21-16.56-23.1-22.19-36.77,12.59-20.39,25-40.34,38.71-59.92,7.04-10.05,13.75-19.54,21.94-28.61,24.17-26.8,69.02-59.4,99.63-80.63,19.86-13.77,38.05-27.68,47.62-50.56l-4.05-8.39c-9.8-22.22-17.56-44.97-22.75-68.76-2.28-10.48-3.62-20.38-3.68-31.17,3.4-2.75,7.03-4.61,11.13-6.25,13.63-5.44,27.45-8.88,42.11-11.44,61.79-10.78,125.63-4.94,185.81,12.19,36.1,10.28,73.83,26.84,103.32,49.95,10.02,7.85,18.42,16.59,27.02,26.01,21.26,23.29,40.32,47.93,58.54,73.63,9.85,13.9,21.25,27.18,38.85,27.39l9.9.12,8.93,16.53,26.62,55.27c11.79,22.45,21.53,45.35,26.87,70.22,1.9,8.85,3.31,17.16,3.47,26.15-11.9,12.56-22.89,25.23-33.33,38.81l-6.88,10.94c-3.31,5.26-8.14,7.31-12.92,10.65l-51.74,36.11c2.94,3.63,3.18,7.64,3.3,11.91.4,14.08-10.93,18.54-24.4,20.46,12.61,4.12,18.68,16.22,21.55,29.1,2.98,13.35,3.23,26.94,1.17,40.45l-.33,1.34c-.07.27-.63.21-.98-.43-7.78-9.25-16.41-17.53-26.75-23.59-6.13-3.59-11.98-4.67-19.04-4.48-15.65.42-31.25-2.79-44.91-10.48-10.27-5.78-17.05-15.36-22.57-25.33-.9-1.62-2.56-2.33-4.12-1.5-3.03,1.6-5.03,4.57-5.08,7.92l-.2,13.96-.87,9.63,3.39,14.29c3.04,12.81-9.47,35.01-17.43,46.64-1.59,2.33-4.86,4.03-7.43,3.48-3.04-.64-4.53-3.58-5.44-6.28-3.6-10.76.16-22.74-5-26.3-2.83-1.95-4.92-4.06-4.86-7.68l.3-17.24c.04-2.06.44-6.02-1.45-7.22-3.84-1.99-7.95,1.4-9.84,4.74l-4.22,7.46c-1.68,2.96-4.27,3.22-7.34,3.89-2.07.45-2.86,3.83-3.66,5.52-4.88,10.33-17.86,27.54-19.89,18.33l-1.55-7.06c-.22-.98-.67-1.9-1.32-2.12-2.15-.71-4.15,1.83-5.74,4.84-3.38,6.39-12.63,21.44-16.55,19.07-4.14-2.51,2.93-10.51-.8-14.38ZM590.57,244.2l13.75,14.72,11.2-12.91c-19.09-25.14-38.82-49.17-60.24-72.24-9.46-10.19-18.34-20.25-29.48-28.44l-31.25-22.97c-28.01-20.59-68.7-40.85-103.09-47.03-21.67-3.9-43.02-6.11-65.07-7.39-47.75-2.77-94.71,3.83-140,19.39,1.08,7.06,2.53,13.82,5.64,20.35l16.49-5.85c49.61-18.18,98.13-20.23,150.52-14.46,74.43,8.2,135.1,47.86,183.88,102.98l47.64,53.83ZM296.23,271.17c17.84-8.52,35.35-15.42,53.8-21.53,27.39-9.07,60.6-16.08,85.73-.1l40.22,25.59c9.35,5.95,22.34,18.6,23.76,27.06l6.78,40.3,3.98,5.68c.98,8.83,9.99,2.76,15.32,8.21l8.9,9.1c2.51,2.56,6.71,5.09,6.92,8.86l1.28,22.52c.18,3.12,2.14,6.36,3.49,9.2,1.64,3.45,5.75,4.74,9.32,4.88l22.47.92,30.46,4.56c13.39,2.01,22.19,12.31,33.54,12.11,13.79-.23,27.05-4.23,39.36-9.8,1.47-.67,1.97-1.77,1.81-3.24-4.08-37.1-15.81-65.74-32.43-98.62-8.82-17.44-17.97-34.13-29.08-50.74-2.27,3.29-2.99,7.04-2.97,10.88l.15,26.52c.03,5.01,1.76,10.64-.45,15.17l-8.04,16.54-5.13,13.96c-4.53,12.31-17.18,3.42-29.4,9.35l-13.27,6.43c-3.94,1.91-7.82,3.94-12.48,4.55-.52-1.79.62-3.47,2.18-4.39l13.08-7.78c2.76-1.64,4.86-3.66,6.63-6.33,3.13-4.72,8.33-7.09,14.04-6.37,5.59.71,5.4-4.22,9.92-7.75,3.31-2.59,2.8-6.25,3.43-10.06l8.33-50.27c-6.51-9.07-13.35-17.06-21.07-24.79l-19.12-19.12c-15.77-15.42-30.65-31.08-44.86-47.99-26.26-31.25-60.07-53.73-97.72-69.17-26.41-10.83-53.7-18.22-81.99-22.57-27.21-4.19-54.29-3.11-81.24,1.87-15.41,2.86-29.78,6.77-44.62,11.52l-24.95,7.98c3.62,18.51,10.74,35.61,20.19,51.85,1.96,3.36,3.1,7.55,2.75,11.26-1,10.42-.81,20.3.97,30.72,4.41,25.88,6.88,50.76-3.79,75.59l-12.19,22.83-6.03,11.91c-5.3,8.24-12.35,15.11-20.01,21.07-1.82,1.42-3.83,1.63-5.82.8-5.47-2.29-8.62,2.17-12.93,1.29.15-2.94,2.41-4,4.58-5.14,4.21-2.2,7.4-5.66,11.19-8.46l12.03-8.89c.8-.59,1.31-1.4.73-2.12-1.3-1.6-6.47,2.49-8.38-.41-.38-.59-.45-1.86.47-2.22,11.9-4.69,12.84-9.43,15.09-22.49,1.22-7.08,1.54-13.89.3-21.09l-15.23,9.97-45.37,27.17-22.72,16.11c-9.19,7.38-17.5,15.38-24.15,25.06l-16.32,23.74c-8.04,13.3-15.5,26.63-21.64,41.04-1.26,5.08,4.18,10.41,8.1,12.77l14.23,5.68c.91,1.99,2.76,2.94,5.09,2.8l19.02.7c5.97.22,10.54,8.51,16.07,8.52l27.71.05c14.02.79,27.73,1.12,41.51-.58l12.25-11.67c-.47-5.51,0-11.74-2.86-16.59-4.54-7.69-7-15.5-7.25-24.73-.11-4.26-.3-8.62,2.76-12.02,5.81-6.45,13.17-7.03,16.52-11.57l1.05-8.86c1.03-3.38,3.05-4.99,6.19-6.37,1.97-.87,2.31-9.64,4.99-14.83,2.71.37,5.06-.27,6.52-2.53,17.84-27.47,48.53-49.27,78.32-63.5ZM58.84,368.63c7.96-12.79,16.34-24.09,26.4-34.84,10.12-10.8,21.37-19.26,33.92-27.06l32.64-20.27c9.26-5.75,17.58-12.02,25.79-19.15,13.59-11.81,26.1-27.08,29.62-45.22-25.68,22.49-51.58,43.26-78.94,62.87-8.4,6.02-16.65,10.83-25.47,15.91-10.34,5.96-18.34,14.08-26.92,22.43-20.97,22.4-38.88,47.2-54.08,74.35l13.16,14.67c7.67-15.45,15-29.45,23.9-43.68ZM710.19,406.86c-1.57-9.35-3.54-17.2-6.28-25.45l-11.78-33.68-8.82-23.3c-9.42-20.56-19.57-40.34-31.27-59.66-3.17-5.24-6.24-9.95-10.17-14.33l-12.21,15.71c15.2,21.41,28.01,44.02,39.28,67.76,5.37,11.31,9.23,22.38,12.44,34.46,4.77,18,8.18,35.7,11.16,54.57l17.65-16.08ZM375.54,281.37c7.2-1.57,14.17-2.21,21.3-2.25l14.53-.09c8.86-.06-3.84-21.77-20.91-24.87-11.74-2.13-24.1-1.92-35.62,1.43l-14.25,6.04c-2.77,1.17-4.72,4.54-2.82,7.11,4,5.43,8.47,10.34,13.47,14.77,2.22,1.96,4.78,2.77,7.83,2.57s7.29.81,10.06-.88c2.14-1.3,3.37-3.16,6.41-3.82ZM488.01,336.33c1.57.91,3.38,1.16,4.97.46,4.3-1.89,3.22-13.92,2.34-21.25-.44-3.64-2.77-6.05-5.76-7.74-7.09-4.01-2.86-10.5-6.14-13.3-2.87-2.46-10.87.32-12.67-4.81-.88-2.5-1.44-4.24-4.31-5.11-4.94-1.5-10.26-2.77-15.58-2.34l-7.31.58c-5.92.47-10.57,4.72-9.98,10.73.23,2.29,2.33,3.77,4.43,4.14,4.66.82,7.66,4.4,7.47,9.13-.22,5.65,6.55,3.47,6.51,8.95l-.04,4.93c-.06,7.77,12.68,7.59,21.58,6.24,7.45-1.13,8.66,6.03,14.47,9.39ZM332.96,323.56c10.05.51,19.46.22,29.07-1.03,3.62-.47,7.24-1.91,9-5.21,1.56-2.93,2.36-6.83,1.61-10.21-1.76-7.93-8.47-13.26-16.46-14.34-8.41-1.13-16.72-.97-25.14-.02-6.93.78-12.68,3.97-17.76,8.89-3.44,3.34-1.72,9.52,2.47,11.78,6.14,3.31,6.92,9.6,17.21,10.13ZM262.74,328.15l12.13-11.56c3.47-3.31,6.18-7.17,7.2-11.94,1.63-7.7-15.62-6.99-25.61-1.54-8.08,4.41-14.59,11.06-19.34,18.68-3.33,5.34-1.8,10.92,2.94,14.47,8.89,6.66,15.22-1,22.68-8.11ZM419.5,344.85c5.38-.7,12.24-6.04,11.35-9.39-.22-.84-1.05-2.14-2.13-2.66l-14.81-7.21c-7.7-4.47-16.06-3.8-22.65,2.18-2.2,2-4.76,4.26-7.73,5.06s-6.29,1.88-6.93,5.28c-1.77,9.32,31.09,8.26,42.9,6.74ZM339.85,362.63c4.02.78,7.4-.84,8.4-4.71,1.2-4.63.29-13.76-.45-14.58-.58-.63-1.71-1.03-2.88-1.18l-16.31-2c-10.25-1.26-10.16-10.1-16.59-14.23-6.58-4.22-11.21,5.08-15.14,5.18-4.79.12-8.6,1.11-12.81,3.32l-9.62,5.04c-4.85,1.67-9.27,3.88-12.33,8.02-2.06,2.79-2.51,5.98-.85,8.55,1.89,2.94,4.83,4.35,8.3,3.14l9.52-3.31c32.79-11.41,49.15,4.49,60.76,6.74ZM326.79,462.03c-.89-.6-1.82-2.45-3.08-2.56-3.71-.29-6.45,2.5-7.83,5.87l-6.43,15.67-3.66,9.93-3.01,4.96c-3.19,5.26,13.09,8.91,21.92.46,4.4-4.21,8.57-8.91,6.13-13.41-.66-1.21-2.41-2.24-4.24-3.09-1.73-.8-1.68-3.05-1.12-4.59.37-1.02,1.31-2.67,2.87-3.06,5.77-1.43,11.05-3.42,16.11-7.09,6.69,5.42,15.33,7.95,23.91,7.18,9.38-.84,9.3-10.23,17.3-13.05,4.36-1.54,9.95,1.04,11.27,5.43.74,2.44-5.17,1.89-5.87,3.58-1.24,2.99,4.48,7.43,8.2,9.17,12.75,5.97,28.57,9.51,40.36,1.42,6.47-4.44,11.29-10.75,15.12-17.4,4.58-7.94-.66-14.47,1.11-17.53,1.22-2.1,7.07-.8,7.25-8.67.09-3.93-.47-6.99-3.04-10.09-1.3-1.57-2.58-5.82-.63-7.13,4.01-2.7,4.52,8.24,8.36,9.99,3.86,1.77,8.39-.43,11.13-3.4,8.17-8.83,7.69-24.12,7.78-35.61l.15-18.45c.04-4.48-1.57-9.07-4.65-12.36-8.54-9.14,1.47-16.52-8.82-22.01-4.13-2.2-8.53-2.1-12.03,1.36l-6.76,6.67c-3.46,3.42-7.67,5.31-12.46,6.1l-28.49,4.7-43.23,6.58-17.12,3.76c-1.29,17.95-8.32,42.44-22.52,53.27-20.92,15.96-51.87,18.76-65.84-6.39-6.56-11.81-10.73-24.52-13.1-37.91l-.56-8.34c-5.67-1.56-9.34,1.13-14.61,3.55-.23,10.34,7.98,18.38,8.65,27.47.47,6.34-.76,12.38-1.15,18.64l-1.32,21.35c-.26,4.28,1.59,7.85,5,10.32l14.99,10.87c1.86,1.35,5.26,3.09,5.42,5.51l.99,15.24c.26,4.02.75,8.63,3.44,11.85,3.6,4.3,8.71,7.26,13.66,9.62,2.27,1.08,4.39,1.09,5.96-.42,1.44-1.38,2.19-2.68,2.14-5.11-.13-6.62,1.92-12.83,5.72-18.22l15.05-21.29c3.73-5.27,7.4-11.12,12.74-14.81,6.29-4.36,12.88-7.66,17.55-13.98s3.47-12.15,6.12-11.55c1.77.4,1.88,3.83,1.45,5.4-3.25,11.97,2.39,19.5-2.31,22.54-1.68,1.09-3.14-5.36-7.78-4.13-8.66,2.28-13.82,10.96-11.98,19.69.26,1.26-.67,2.6-1.23,3.14s-1.59,1.3-3,.35ZM495.37,456.73c6.08,2.1,12.99,4.2,16.68.05,1.54-1.73,2.27-4.21,2-6.82l-1.48-14.55c-.66-6.52.91-12.15,4.73-17.38l11.68-15.99c4.15-5.68,6.9-12.5,6.16-19.83-1.45-14.3-16.99-28.02-25.27-20.91l-10.63,9.13c-3.08,2.65-5.73,5.64-5.64,9.78l.38,18.71.42,14.73c.28,9.84-9.65,12.35-10.02,18.11-.36,5.72.51,11.38,2.35,16.7,1.43,4.11,4.43,6.82,8.65,8.28ZM217.56,441.77c-4.56-2.45-6.25-7.45-4.83-11.92.66-2.08.15-2.98-.45-4.94-1.21-3.96-.79-8.8-.13-12.9.72-4.49-.78-7.63-3.61-11.12-5.07-6.23-14.12-2.69-14.99-6.72-.23-1.05.55-3.19,2.2-3.56,4.85-1.08,10.75.16,14.07,4.17l14.24,17.18c.64.77,1.43,1.17,2.29,1.07,3.1-.38,5.42-7.15,4.07-10.98-3.3-3.66-5.21-7-6.34-11.84-2.21-9.49-12.14-15.91-21.5-14.33-6.68,1.12-11.34,5.49-11.96,12.08-.42,4.5.31,8.92,1.76,13.26l8.04,23.97c1.59,4.75,2.4,9.5,2.69,14.45.57,9.65,9.29,13.15,11.14,19.04,1.72,5.5,2.87,14.69,8.17,16.31,6.18,1.89,14.52-7.33,17.7-14.49-4.6-2.96-10.66.1-13.71-7.18-1.8-4.28-7.07-.52-9.47-5.61-.84-1.79-.63-3.68.63-5.94ZM224.05,441.32c1.53.9,3.49,1.32,5.02.89,1.13-.32,2.95-1.33,3.32-3.25,1.07-5.58,2.31-12.78-.72-18.09-2.27-3.98-13.95-10.02-15.54-7.02-2.27,4.26,7.69,9.12,6.51,15.24l-1.33,6.86c-.47,2.45.48,4.05,2.74,5.38ZM394.1,505.99c4.03,1.88,10.64-.84,13.78-3.21,1.89-1.43-.35-3.54-1.56-4.08l-15.75-6.99-8.11-2.91c-6.5-2.33-5.86-7.08-11.49-7.65l-16.18-1.64c-3.72-.38-6.54,1.12-8.15,4.28l-3.51,6.91c-2.82,4.2-7.31,6.31-11.54,8.79l-8.14,4.76c-1.27.75-2.47,1.94-2.39,3.4,5.89,1.31,13.28-5.16,18.23-4.7l8.67.8c4.42-.39,8.4.64,12.56,1.92,9.45,2.89,14.1-8.78,33.57.31ZM603.05,530.01c5.19-1.59,6.88-6.84,4.84-11.31-2.84-6.2-6.99-11.66-12.49-15.73-1.86-1.38-4.75-1.01-6.93.15l3.12,18.54c.44,2.58.92,6.14,2.99,7.99,1.86,1.66,5.99,1.12,8.47.36ZM508.7,533.86c-3.1-4.43-3.38-8.5-2.54-13.02,1.56-4.41,1.36-9.13-1.17-13.05-3.25-4.86-12.61-3.51-19.62-2.29-.32,8.89.12,21.31,7.29,25.06,4.97,2.76,10.46,3.98,16.04,3.3ZM573.2,530.73c-.46-7.33-.75-13.39-2.84-19.32-1.23-4.19-4.1-6.26-8.26-6.65-2.7-.26-5.21-1.39-8.25.26,3.39,7.65,2.27,19.87,5.73,23.23,3.56,3.47,9.24,3.69,13.62,2.48ZM550.05,517.48l-8.9-10.16c-1.53-1.75-3.61-2.65-6.03-1.82l2.98,13.58c.63,2.85.68,6.25,2.26,8.73,2.63,4.11,7.89,5.53,12.84,4.77-1.46-6.43,1.66-9.61-3.15-15.11ZM358.05,519.96c1.97-2.72,1.55-9.48-.05-12.17-3.94-2.63-9.6-1.72-13.92-1.58l-1.22,9.7c-.65,5.16,10.29,6.97,15.19,4.05ZM376.69,520.41c4.9-1.47,3.28-8.03,1.96-14.31-4.7.3-10.57-.34-14.31,2.89-1.89,2.69-2.03,9.82,0,12.32,3.6,2.03,8.73.18,12.36-.91ZM475.26,523.13c1.92-5.97,1.97-11.41.51-16.88h-65.35c-.93,4.17-3.36,6.97-6.51,9.56l-10.37,8.53,81.72-1.21ZM531.23,529.56c-2.2-5.49.91-14.05-6.31-20.8-3.35-3.14-8.11-3.4-12.35-2.01-2.3,9.61-2.06,24.53,6.6,26.19,5.87,1.13,13.41-.03,12.06-3.38ZM586.56,527.93c2.31-2.83.59-6.41-.46-8.89-2.76-6.52-5.03-14.85-10.88-12.59,2.29,7.68.01,16.32,2.45,21.74,1.79,1.76,7.2,1.83,8.89-.25ZM338.13,518.01c2.87-1.75,3.17-8.27,1.51-10.43-5.06-1.95-15.91,1.15-16.17,4.93s10.53,8.03,14.66,5.51ZM398.55,514.66c4.33-3.77-7.33-9.49-15.29-7.08-2.03,2.18-1.18,9.59,1.82,10.72,4.46,1.69,10.2-.81,13.46-3.64ZM311.3,509.06l-231.22.11,70.27,13.45,170.24-1.2c.23-5.01-4.84-8.99-9.3-12.36ZM385.37,562.79c-3.03-2.12-5.69-3.05-8.51-4.44l-12.75-6.3-13.34-5.73c-2.22-.95-4.01-2-4.86-5.06,1.92-.35,5.12-1.8,7.32-.57l11.87,6.59c6.32,3.51,12.56,4.37,19.57,2.79s15.78,5.86,18.75-1.57c2.57-6.43,6.37-9.24,5.37-11.78-.27-.68-1.57-1.2-2.18-1.92-3.12-3.72-7-5.18-11.89-4.09-6.9,1.55-13.71,2.52-20.91,2.37l-14.22-.31c-13.15.54-25.86-.27-38.78-2.6-5.43-.98-13.71-.95-14.95,1.77-1.89,4.14,13.29,21.98,19.65,27.81,3.02,2.77,8.92,4.36,11.88,1.83,9.44-8.05,21.01-6.26,28.57,2.91,9.02,10.94,32.81,17.65,40.1,8.32,3.37-4.31,6.49-8.28,11.27-11.03l10.51-6.04c5.04-2.9,9.02-6.76,11.15-12.3.88-2.28,1.18-6.49-.85-8.05-3.86-1.25-8.23-.32-12.18-.8-1.28,1.75-2.3,3.1-3.82,4.36-7.51,6.18-5.95,11.75-11.57,14.87l-9.9,5.5c-4.51,2.5-9.98,2.46-15.29,3.47ZM486.48,560.01l4.98-12.7c.78-2,2.24-3.65,2.73-5.84s-.54-4.09-2.75-4.76c-2.16-.65-4.59-.45-6.78-.57-3.3-.18-5.13,1.35-7.39,3.16-7.77,6.22-14.42,10.83-11.37,20.55,1.88,5.98,7.95,10.71,14.4,8.21,3.04-1.18,5-5.01,6.19-8.05ZM540.3,551.66c.52-3.49-2.2-6.68-4.86-8.54-5.82-4.08-13.01-4.5-20.09-4.6l-9.14-.13c-.04,4.63,1.24,9.65,3.75,13.6,1.94,3.05,5.66,4.18,9.1,3.31,11.31-2.84,20.65.29,21.24-3.64ZM601.78,565.34c1.99-4.18.99-7.93-2.44-11.04l-14.15-12.84c-2.94-2.66-6.3-3.87-10.12-2.08-3.46,1.63-6.65,4.28-9.27,7.14-2.72,2.96-2.15,7.23,1.14,9.54,5.81,4.07,11.94,7.47,18.51,10.32,6.75,2.93,13.69,4.5,16.33-1.04ZM564.16,578.46l6.68-4.67c.74-.52,1.06-1.52,1.01-2.21-.15-2.2-8.17-7.47-12.53-9.74-5.36-2.78-10.69-2.58-16.49-1.37l-8.66,1.8c-2.13.44-3.41,2.91-3.28,4.91.54,7.95,27.47,15.34,33.28,11.28ZM473.66,595.01c-2.31-10.63.53-20.66-1.62-22.55-3.11-2.72-12.98-1.05-13.9,2.87-1.9,8.08-1.29,16.57-.51,24.74.38,3.98,3.29,8.54,7.17,9.36,7.33,1.54,19.76-4.35,16.26-10.2-2.34-3.91-6.49-.08-7.38-4.21ZM610.26,601.31c.52.62,1.39,1.05,2.02.75,1.96-.95-.1-13.55-2.11-19.78-2.84-8.79-23.81-6.77-24.35-3.24-.61,3.97,11.34,6.71,18.26,14.92l6.19,7.35Z"/>
  <path class="st0" d="M326.79,462.03c1.42.96,2.46.18,3-.35s1.49-1.88,1.23-3.14c-1.83-8.73,3.32-17.41,11.98-19.69,4.64-1.22,6.1,5.22,7.78,4.13,4.7-3.04-.94-10.57,2.31-22.54.42-1.56.32-5-1.45-5.4-2.65-.6-1.57,5.37-6.12,11.55s-11.25,9.62-17.55,13.98c-5.34,3.7-9.02,9.54-12.74,14.81l-15.05,21.29c-3.81,5.38-5.86,11.6-5.72,18.22.05,2.43-.7,3.72-2.14,5.11-1.58,1.52-3.69,1.51-5.96.42-4.95-2.36-10.07-5.32-13.66-9.62-2.7-3.22-3.18-7.83-3.44-11.85l-.99-15.24c-.16-2.42-3.56-4.16-5.42-5.51l-14.99-10.87c-3.41-2.47-5.27-6.04-5-10.32l1.32-21.35c.39-6.26,1.61-12.3,1.15-18.64-.67-9.09-8.88-17.13-8.65-27.47,5.28-2.43,8.94-5.11,14.61-3.55l.56,8.34c2.37,13.39,6.54,26.1,13.1,37.91,13.97,25.14,44.92,22.35,65.84,6.39,14.2-10.83,21.23-35.32,22.52-53.27l17.12-3.76,43.23-6.58,28.49-4.7c4.79-.79,8.99-2.68,12.46-6.1l6.76-6.67c3.5-3.45,7.9-3.55,12.03-1.36,10.3,5.48.29,12.86,8.82,22.01,3.08,3.3,4.69,7.89,4.65,12.36l-.15,18.45c-.09,11.49.38,26.78-7.78,35.61-2.74,2.96-7.27,5.16-11.13,3.4-3.83-1.76-4.35-12.69-8.36-9.99-1.95,1.31-.67,5.57.63,7.13,2.57,3.1,3.13,6.16,3.04,10.09-.18,7.87-6.03,6.57-7.25,8.67-1.77,3.07,3.47,9.59-1.11,17.53-3.84,6.65-8.66,12.96-15.12,17.4-11.79,8.09-27.61,4.55-40.36-1.42-3.72-1.74-9.44-6.18-8.2-9.17.7-1.69,6.61-1.14,5.87-3.58-1.33-4.39-6.92-6.96-11.27-5.43-8,2.82-7.92,12.21-17.3,13.05-8.58.77-17.22-1.76-23.91-7.18-5.07,3.67-10.34,5.66-16.11,7.09-1.56.39-2.5,2.04-2.87,3.06-.56,1.54-.61,3.78,1.12,4.59,1.83.85,3.58,1.88,4.24,3.09,2.44,4.5-1.73,9.2-6.13,13.41-8.83,8.45-25.12,4.8-21.92-.46l3.01-4.96,3.66-9.93,6.43-15.67c1.38-3.37,4.13-6.17,7.83-5.87,1.27.1,2.19,1.95,3.08,2.56ZM420.26,457.01l-.27-7.04c-.1-2.69-.55-4.99-2.2-7.11-5.27-6.77-11.16-12.99-18.14-18.09l-7.85-3.82c-1.13-.55-1.94-1.6-1.97-2.66-.02-.76,3.53-7.34,6.75-8.21s6.54-.48,8.66,1.69l8.18,8.37c4.6,4.71,10.71,7.24,17.28,5.96-6.68-4.81-12.96-9.54-17.09-17.06,15.65.14,30.58-3.03,43.16-11.35,7.33-4.85,11.86-11.56,13.24-20.12.57-3.53,1.75-7.23.4-10.73-.72-1.88-2.07-3.5-2.33-5.51l-38.29.85-13.58.31c-3.68,5.56-9.46,7.84-15.66,9.1-3.6,4.36-9.05,8.87-11.98,6.02-2.07-2.01-.18-5.88-3.59-6.6-2.27-.48-4.47-.63-6.94-.33l1.2,77.28c1.08.9,4.2,1.09,4.72-.02,1.93-4.13,1.52-8.77,2.54-13.11.64-2.75,4.17-3.61,6.58-3,2.9.73,4.71,2.51,6.77,4.41l13.13,12.06c5.94,5.46-4.34,13.68,1.18,16.73,6.31,3.49,16.45,0,13.21-2.49-1.77-1.36-6.96-1.29-7.12-5.53Z"/>
  <path class="st0" d="M590.57,244.2l-47.64-53.83c-48.78-55.12-109.46-94.78-183.88-102.98-52.39-5.77-100.91-3.73-150.52,14.46l-16.49,5.85c-3.12-6.53-4.57-13.29-5.64-20.35,45.3-15.57,92.26-22.17,140-19.39,22.06,1.28,43.4,3.49,65.07,7.39,34.38,6.18,75.08,26.44,103.09,47.03l31.25,22.97c11.14,8.19,20.02,18.25,29.48,28.44,21.41,23.07,41.15,47.09,60.24,72.24l-11.2,12.91-13.75-14.72Z"/>
  <path class="st0" d="M58.84,368.63c-8.9,14.24-16.22,28.23-23.9,43.68l-13.16-14.67c15.2-27.14,33.11-51.95,54.08-74.35,8.59-8.35,16.58-16.47,26.92-22.43,8.82-5.08,17.08-9.89,25.47-15.91,27.36-19.61,53.26-40.38,78.94-62.87-3.52,18.14-16.02,33.41-29.62,45.22-8.21,7.13-16.53,13.4-25.79,19.15l-32.64,20.27c-12.55,7.79-23.8,16.26-33.92,27.06-10.06,10.74-18.44,22.05-26.4,34.84Z"/>
  <path class="st0" d="M385.37,562.79c5.31-1,10.78-.96,15.29-3.47l9.9-5.5c5.62-3.12,4.06-8.69,11.57-14.87,1.53-1.26,2.55-2.62,3.82-4.36,3.94.48,8.32-.45,12.18.8,2.03,1.56,1.73,5.77.85,8.05-2.13,5.53-6.11,9.4-11.15,12.3l-10.51,6.04c-4.78,2.75-7.9,6.72-11.27,11.03-7.29,9.33-31.08,2.62-40.1-8.32-7.56-9.17-19.13-10.97-28.57-2.91-2.96,2.53-8.86.94-11.88-1.83-6.36-5.83-21.53-23.68-19.65-27.81,1.24-2.72,9.52-2.75,14.95-1.77,12.92,2.33,25.63,3.14,38.78,2.6l14.22.31c7.2.16,14.01-.82,20.91-2.37,4.89-1.1,8.77.36,11.89,4.09.61.72,1.91,1.24,2.18,1.92,1,2.54-2.8,5.35-5.37,11.78-2.96,7.42-11.87.02-18.75,1.57s-13.26.72-19.57-2.79l-11.87-6.59c-2.2-1.23-5.4.23-7.32.57.85,3.06,2.64,4.11,4.86,5.06l13.34,5.73,12.75,6.3c2.82,1.39,5.48,2.32,8.51,4.44Z"/>
  <path class="st0" d="M710.19,406.86l-17.65,16.08c-2.98-18.87-6.39-36.57-11.16-54.57-3.21-12.08-7.07-23.15-12.44-34.46-11.27-23.74-24.09-46.35-39.28-67.76l12.21-15.71c3.92,4.37,6.99,9.09,10.17,14.33,11.7,19.32,21.85,39.11,31.27,59.66l8.82,23.3,11.78,33.68c2.74,8.24,4.71,16.1,6.28,25.45Z"/>
  <path class="st0" d="M311.3,509.06c4.45,3.37,9.52,7.35,9.3,12.36l-170.24,1.2-70.27-13.45,231.22-.11Z"/>
  <path class="st0" d="M217.56,441.77c-1.26,2.26-1.47,4.14-.63,5.94,2.4,5.1,7.67,1.34,9.47,5.61,3.06,7.28,9.11,4.22,13.71,7.18-3.17,7.16-11.52,16.38-17.7,14.49-5.3-1.62-6.44-10.81-8.17-16.31-1.85-5.89-10.56-9.4-11.14-19.04-.29-4.94-1.1-9.7-2.69-14.45l-8.04-23.97c-1.46-4.35-2.18-8.77-1.76-13.26.62-6.6,5.28-10.96,11.96-12.08,9.37-1.57,19.29,4.84,21.5,14.33,1.13,4.84,3.04,8.18,6.34,11.84,1.34,3.83-.97,10.59-4.07,10.98-.86.11-1.65-.3-2.29-1.07l-14.24-17.18c-3.32-4.01-9.22-5.25-14.07-4.17-1.66.37-2.43,2.51-2.2,3.56.87,4.03,9.92.49,14.99,6.72,2.83,3.48,4.33,6.63,3.61,11.12-.66,4.11-1.07,8.95.13,12.9.6,1.96,1.11,2.86.45,4.94-1.41,4.47.27,9.47,4.83,11.92Z"/>
  <path class="st0" d="M475.26,523.13l-81.72,1.21,10.37-8.53c3.15-2.59,5.58-5.39,6.51-9.56h65.35c1.46,5.47,1.41,10.91-.51,16.88Z"/>
  <path class="st0" d="M394.1,505.99c-19.48-9.09-24.12,2.59-33.57-.31-4.16-1.27-8.14-2.31-12.56-1.92l-8.67-.8c-4.96-.46-12.35,6-18.23,4.7-.08-1.46,1.12-2.65,2.39-3.4l8.14-4.76c4.23-2.48,8.73-4.58,11.54-8.79l3.51-6.91c1.61-3.16,4.42-4.66,8.15-4.28l16.18,1.64c5.63.57,5,5.32,11.49,7.65l8.11,2.91,15.75,6.99c1.21.54,3.45,2.65,1.56,4.08-3.14,2.37-9.75,5.09-13.78,3.21ZM351.71,491.45c-.53-.51-1,.25-.49.58l.49-.58ZM352.04,491.63l-.75.74c.63,1.77,1.11,4.74,3.34,5.7,1.91.82,4.62.17,6.8.21,3.71.07,6.62-2.86,6.98-6.38-5.85,1.51-11.19,1.19-16.37-.27Z"/>
  <g>
    <path class="st1" d="M296.23,271.17c-29.79,14.22-60.48,36.03-78.32,63.5-1.47,2.26-3.82,2.9-6.52,2.53-2.67,5.19-3.01,13.96-4.99,14.83-3.13,1.38-5.15,2.99-6.19,6.37l-1.05,8.86c-3.35,4.54-10.71,5.11-16.52,11.57-3.06,3.4-2.88,7.76-2.76,12.02.25,9.23,2.71,17.04,7.25,24.73,2.86,4.85,2.39,11.08,2.86,16.59l-12.25,11.67c-13.78,1.7-27.49,1.37-41.51.58l-27.71-.05c-5.53-.01-10.1-8.3-16.07-8.52l-19.02-.7c-2.33.14-4.18-.8-5.09-2.8l-14.23-5.68c-3.92-2.37-9.36-7.69-8.1-12.77,6.14-14.41,13.61-27.74,21.64-41.04l16.32-23.74c6.65-9.68,14.96-17.68,24.15-25.06l22.72-16.11,45.37-27.17,15.23-9.97c1.24,7.21.92,14.02-.3,21.09-2.24,13.05-3.18,17.8-15.09,22.49-.92.36-.85,1.63-.47,2.22,1.9,2.91,7.08-1.19,8.38.41.58.72.07,1.53-.73,2.12l-12.03,8.89c-3.79,2.8-6.98,6.27-11.19,8.46-2.17,1.13-4.43,2.19-4.58,5.14,4.31.87,7.47-3.58,12.93-1.29,1.99.83,4,.62,5.82-.8,7.67-5.96,14.72-12.83,20.01-21.07l6.03-11.91,12.19-22.83c10.67-24.84,8.21-49.72,3.79-75.59-1.78-10.42-1.96-20.3-.97-30.72.35-3.71-.79-7.9-2.75-11.26-9.45-16.24-16.57-33.34-20.19-51.85l24.95-7.98c14.84-4.74,29.21-8.66,44.62-11.52,26.96-4.98,54.03-6.06,81.24-1.87,28.29,4.35,55.58,11.74,81.99,22.57,37.65,15.43,71.46,37.91,97.72,69.17,14.21,16.91,29.09,32.57,44.86,47.99l19.12,19.12c7.73,7.73,14.56,15.71,21.07,24.79l-8.33,50.27c-.63,3.81-.12,7.47-3.43,10.06-4.52,3.53-4.33,8.45-9.92,7.75-5.7-.72-10.91,1.64-14.04,6.37-1.77,2.67-3.87,4.69-6.63,6.33l-13.08,7.78c-1.55.92-2.7,2.61-2.18,4.39,4.66-.61,8.53-2.64,12.48-4.55l13.27-6.43c12.22-5.92,24.88,2.97,29.4-9.35l5.13-13.96,8.04-16.54c2.2-4.53.47-10.16.45-15.17l-.15-26.52c-.02-3.83.69-7.58,2.97-10.88,11.11,16.61,20.26,33.31,29.08,50.74,16.63,32.88,28.35,61.52,32.43,98.62.16,1.47-.34,2.57-1.81,3.24-12.31,5.57-25.57,9.57-39.36,9.8-11.35.19-20.15-10.11-33.54-12.11l-30.46-4.56-22.47-.92c-3.58-.15-7.69-1.44-9.32-4.88-1.35-2.84-3.31-6.09-3.49-9.2l-1.28-22.52c-.21-3.77-4.42-6.3-6.92-8.86l-8.9-9.1c-5.32-5.44-14.34.63-15.32-8.21l-3.98-5.68-6.78-40.3c-1.42-8.46-14.41-21.11-23.76-27.06l-40.22-25.59c-25.12-15.98-58.34-8.97-85.73.1-18.45,6.11-35.96,13.01-53.8,21.53Z"/>
    <path class="st1" d="M488.01,336.33c-5.8-3.36-7.02-10.52-14.47-9.39-8.89,1.35-21.63,1.53-21.58-6.24l.04-4.93c.04-5.48-6.73-3.3-6.51-8.95.19-4.73-2.82-8.3-7.47-9.13-2.1-.37-4.2-1.86-4.43-4.14-.6-6.02,4.05-10.26,9.98-10.73l7.31-.58c5.32-.43,10.63.85,15.58,2.34,2.87.87,3.43,2.61,4.31,5.11,1.8,5.12,9.8,2.35,12.67,4.81,3.27,2.81-.95,9.3,6.14,13.3,2.99,1.69,5.33,4.1,5.76,7.74.88,7.33,1.96,19.36-2.34,21.25-1.6.7-3.41.45-4.97-.46Z"/>
    <path class="st1" d="M375.54,281.37c-3.04.66-4.27,2.52-6.41,3.82-2.77,1.69-6.96.67-10.06.88s-5.61-.6-7.83-2.57c-4.99-4.43-9.47-9.34-13.47-14.77-1.9-2.57.06-5.94,2.82-7.11l14.25-6.04c11.53-3.34,23.89-3.56,35.62-1.43,17.07,3.1,29.77,24.81,20.91,24.87l-14.53.09c-7.13.05-14.1.69-21.3,2.25Z"/>
    <path class="st1" d="M339.85,362.63c-11.62-2.26-27.97-18.15-60.76-6.74l-9.52,3.31c-3.48,1.21-6.41-.2-8.3-3.14-1.66-2.58-1.21-5.76.85-8.55,3.06-4.14,7.49-6.35,12.33-8.02l9.62-5.04c4.22-2.21,8.03-3.2,12.81-3.32,3.93-.1,8.56-9.4,15.14-5.18,6.43,4.12,6.34,12.97,16.59,14.23l16.31,2c1.17.14,2.3.54,2.88,1.18.74.82,1.65,9.95.45,14.58-1,3.87-4.38,5.49-8.4,4.71Z"/>
    <path class="st1" d="M332.96,323.56c-10.29-.52-11.07-6.82-17.21-10.13-4.19-2.26-5.91-8.44-2.47-11.78,5.08-4.93,10.83-8.11,17.76-8.89,8.42-.95,16.73-1.11,25.14.02,7.99,1.07,14.7,6.41,16.46,14.34.75,3.38-.04,7.28-1.61,10.21-1.76,3.29-5.38,4.74-9,5.21-9.61,1.25-19.02,1.54-29.07,1.03Z"/>
    <path class="st1" d="M262.74,328.15c-7.46,7.12-13.79,14.77-22.68,8.11-4.74-3.55-6.27-9.13-2.94-14.47,4.75-7.62,11.26-14.27,19.34-18.68,9.99-5.45,27.24-6.17,25.61,1.54-1.01,4.77-3.72,8.63-7.2,11.94l-12.13,11.56Z"/>
    <path class="st1" d="M419.5,344.85c-11.81,1.53-44.67,2.58-42.9-6.74.65-3.4,3.91-4.47,6.93-5.28s5.53-3.06,7.73-5.06c6.59-5.98,14.95-6.65,22.65-2.18l14.81,7.21c1.08.52,1.91,1.82,2.13,2.66.89,3.35-5.97,8.69-11.35,9.39Z"/>
  </g>
  <path class="st1" d="M601.78,565.34c-2.64,5.54-9.58,3.97-16.33,1.04-6.57-2.85-12.7-6.25-18.51-10.32-3.29-2.31-3.87-6.58-1.14-9.54,2.63-2.86,5.81-5.51,9.27-7.14,3.82-1.8,7.18-.59,10.12,2.08l14.15,12.84c3.43,3.11,4.43,6.86,2.44,11.04Z"/>
  <path class="st1" d="M473.66,595.01c.9,4.13,5.05.3,7.38,4.21,3.5,5.85-8.93,11.74-16.26,10.2-3.87-.81-6.79-5.37-7.17-9.36-.78-8.17-1.39-16.66.51-24.74.92-3.91,10.79-5.59,13.9-2.87,2.15,1.88-.69,11.92,1.62,22.55Z"/>
  <path class="st1" d="M486.48,560.01c-1.19,3.03-3.14,6.86-6.19,8.05-6.45,2.5-12.52-2.23-14.4-8.21-3.05-9.72,3.6-14.33,11.37-20.55,2.26-1.81,4.09-3.34,7.39-3.16,2.2.12,4.62-.08,6.78.57,2.22.67,3.25,2.54,2.75,4.76s-1.94,3.84-2.73,5.84l-4.98,12.7Z"/>
  <path class="st1" d="M564.16,578.46c-5.8,4.06-32.74-3.33-33.28-11.28-.14-2,1.14-4.47,3.28-4.91l8.66-1.8c5.8-1.21,11.13-1.41,16.49,1.37,4.37,2.27,12.39,7.54,12.53,9.74.05.69-.27,1.69-1.01,2.21l-6.68,4.67Z"/>
  <path class="st0" d="M508.7,533.86c-5.58.68-11.07-.54-16.04-3.3-7.17-3.75-7.62-16.17-7.29-25.06,7.01-1.22,16.37-2.57,19.62,2.29,2.53,3.93,2.73,8.64,1.17,13.05-.84,4.51-.56,8.58,2.54,13.02Z"/>
  <path class="st1" d="M540.3,551.66c-.59,3.93-9.93.8-21.24,3.64-3.44.86-7.16-.26-9.1-3.31-2.51-3.95-3.79-8.98-3.75-13.6l9.14.13c7.07.1,14.27.53,20.09,4.6,2.65,1.86,5.38,5.05,4.86,8.54Z"/>
  <path class="st0" d="M531.23,529.56c1.34,3.35-6.19,4.51-12.06,3.38-8.66-1.67-8.9-16.58-6.6-26.19,4.24-1.4,9-1.13,12.35,2.01,7.22,6.75,4.11,15.31,6.31,20.8Z"/>
  <path class="st0" d="M603.05,530.01c-2.48.76-6.61,1.3-8.47-.36-2.07-1.85-2.55-5.41-2.99-7.99l-3.12-18.54c2.18-1.16,5.07-1.53,6.93-.15,5.5,4.07,9.65,9.53,12.49,15.73,2.05,4.47.35,9.71-4.84,11.31Z"/>
  <path class="st0" d="M573.2,530.73c-4.38,1.21-10.06.99-13.62-2.48-3.46-3.37-2.34-15.58-5.73-23.23,3.04-1.65,5.55-.51,8.25-.26,4.17.39,7.03,2.47,8.26,6.65,2.09,5.93,2.38,11.98,2.84,19.32Z"/>
  <path class="st1" d="M610.26,601.31l-6.19-7.35c-6.92-8.21-18.87-10.95-18.26-14.92.54-3.53,21.51-5.54,24.35,3.24,2.01,6.22,4.07,18.83,2.11,19.78-.62.3-1.5-.13-2.02-.75Z"/>
  <path class="st0" d="M224.05,441.32c-2.27-1.33-3.22-2.92-2.74-5.38l1.33-6.86c1.19-6.12-8.77-10.98-6.51-15.24,1.59-2.99,13.28,3.05,15.54,7.02,3.02,5.31,1.78,12.52.72,18.09-.37,1.92-2.19,2.92-3.32,3.25-1.52.44-3.49.01-5.02-.89Z"/>
  <path class="st0" d="M550.05,517.48c4.82,5.5,1.69,8.68,3.15,15.11-4.95.76-10.21-.66-12.84-4.77-1.59-2.49-1.64-5.88-2.26-8.73l-2.98-13.58c2.42-.83,4.5.07,6.03,1.82l8.9,10.16Z"/>
  <path class="st0" d="M376.69,520.41c-3.63,1.08-8.75,2.94-12.36.91-2.02-2.5-1.88-9.64,0-12.32,3.74-3.23,9.61-2.59,14.31-2.89,1.32,6.27,2.94,12.84-1.96,14.31Z"/>
  <path class="st0" d="M358.05,519.96c-4.9,2.92-15.84,1.11-15.19-4.05l1.22-9.7c4.31-.14,9.98-1.05,13.92,1.58,1.6,2.69,2.01,9.45.05,12.17Z"/>
  <path class="st0" d="M586.56,527.93c-1.69,2.08-7.1,2.02-8.89.25-2.43-5.41-.16-14.05-2.45-21.74,5.86-2.26,8.12,6.07,10.88,12.59,1.05,2.48,2.77,6.06.46,8.89Z"/>
  <path class="st0" d="M338.13,518.01c-4.13,2.52-14.92-1.62-14.66-5.51s11.1-6.87,16.17-4.93c1.66,2.16,1.36,8.68-1.51,10.43Z"/>
  <path class="st0" d="M398.55,514.66c-3.26,2.84-9.01,5.33-13.46,3.64-3-1.14-3.86-8.54-1.82-10.72,7.96-2.41,19.62,3.31,15.29,7.08Z"/>
  <path d="M420.26,457.01c.16,4.24,5.35,4.17,7.12,5.53,3.24,2.48-6.9,5.98-13.21,2.49-5.52-3.05,4.77-11.27-1.18-16.73l-13.13-12.06c-2.06-1.89-3.87-3.68-6.77-4.41-2.41-.61-5.93.26-6.58,3-1.01,4.35-.61,8.98-2.54,13.11-.52,1.12-3.64.92-4.72.02l-1.2-77.28c2.47-.3,4.67-.15,6.94.33,3.41.72,1.51,4.58,3.59,6.6,2.93,2.84,8.38-1.66,11.98-6.02,6.2-1.26,11.98-3.55,15.66-9.1l13.58-.31,38.29-.85c.25,2.01,1.6,3.63,2.33,5.51,1.34,3.5.17,7.19-.4,10.73-1.38,8.56-5.91,15.27-13.24,20.12-12.58,8.32-27.51,11.49-43.16,11.35,4.12,7.52,10.4,12.25,17.09,17.06-6.57,1.28-12.68-1.25-17.28-5.96l-8.18-8.37c-2.12-2.17-5.36-2.58-8.66-1.69s-6.77,7.45-6.75,8.21c.03,1.06.83,2.11,1.97,2.66l7.85,3.82c6.97,5.11,12.87,11.32,18.14,18.09,1.65,2.12,2.1,4.42,2.2,7.11l.27,7.04ZM398.55,382.22l-7.19,2.31c3.71,10.68,12.61,17.4,23.71,18.03,9.11.51,17.98-.98,26.41-4.25,12.88-4.99,20.99-16.3,21.54-30.51l-14.11-.64-12.4,1.12c1.51,7.87-1.89,15.68-8.23,20.4-4.14,3.08-8.95,2.9-13.26.36l-7.65-7.61c-1.97-1.96-6.62.08-8.81.78Z"/>
  <g>
    <path class="st0" d="M495.37,456.73c-4.23-1.46-7.23-4.16-8.65-8.28-1.85-5.32-2.72-10.99-2.35-16.7.37-5.76,10.29-8.27,10.02-18.11l-.42-14.73-.38-18.71c-.08-4.14,2.56-7.13,5.64-9.78l10.63-9.13c8.28-7.11,23.82,6.61,25.27,20.91.74,7.33-2.01,14.15-6.16,19.83l-11.68,15.99c-3.82,5.23-5.39,10.86-4.73,17.38l1.48,14.55c.27,2.61-.46,5.09-2,6.82-3.69,4.16-10.6,2.05-16.68-.05ZM511.89,398.24c2.36-3.49-4.1-14.92,3.93-16.96,2.59-.66,5.46.68,7.17,3.74,1.25-1.88,1.26-4.13.21-6.28l-2.41-4.97c-.54-1.12-1.61-1.81-2.65-1.8-.96,0-1.87.44-2.65,1.21l-5.88,5.74c-3.47,2.49-5.17,5.78-4.7,10.21l1.24,11.56-2.39,9.55,8.12-12.01Z"/>
    <path d="M511.89,398.24l-8.12,12.01,2.39-9.55-1.24-11.56c-.47-4.43,1.22-7.73,4.7-10.21l5.88-5.74c.79-.77,1.69-1.21,2.65-1.21,1.04,0,2.11.69,2.65,1.8l2.41,4.97c1.05,2.15,1.03,4.4-.21,6.28-1.71-3.06-4.58-4.4-7.17-3.74-8.03,2.04-1.58,13.47-3.93,16.96Z"/>
  </g>
  <path d="M351.21,492.04c-.5-.33-.03-1.09.49-.58.05.05.18.13.33.17,5.18,1.46,10.52,1.78,16.37.27-.36,3.51-3.27,6.45-6.98,6.38-2.18-.04-4.89.61-6.8-.21-2.23-.96-2.71-3.93-3.34-5.7l-.08-.33Z"/>
  <path class="st0" d="M398.55,382.22c2.2-.71,6.85-2.74,8.81-.78l7.65,7.61c4.31,2.54,9.12,2.72,13.26-.36,6.34-4.72,9.74-12.52,8.23-20.4l12.4-1.12,14.11.64c-.55,14.21-8.66,25.52-21.54,30.51-8.43,3.27-17.3,4.76-26.41,4.25-11.09-.62-20-7.35-23.71-18.03l7.19-2.31Z"/>
</svg>